SplineFontDB: 3.0
FontName: Viravong
FullName: Viravong
FamilyName: Viravong
Weight: Regular
Copyright: Viravong, Lao Pali font based on Sanit Phokhaphan's LaneXang_Mon.\nCopyright (c) 2018, Theppitak Karoonboonyanan.\n\nLaneXang_Mon - font for the Laotian language of Laos.\nCopyright (c) 2013, Sanit Phokhaphan.\n
UComments: "2018-9-3: Created with FontForge (http://fontforge.org)"
Version: 001.002
ItalicAngle: 0
UnderlinePosition: -100
UnderlineWidth: 50
Ascent: 800
Descent: 200
InvalidEm: 0
LayerCount: 2
Layer: 0 0 "Back" 1
Layer: 1 0 "Fore" 0
XUID: [1021 642 1126272861 3024291]
FSType: 0
OS2Version: 0
OS2_WeightWidthSlopeOnly: 0
OS2_UseTypoMetrics: 1
CreationTime: 1535951478
ModificationTime: 1537949548
PfmFamily: 17
TTFWeight: 400
TTFWidth: 5
LineGap: 90
VLineGap: 0
OS2TypoAscent: 0
OS2TypoAOffset: 1
OS2TypoDescent: 0
OS2TypoDOffset: 1
OS2TypoLinegap: 90
OS2WinAscent: 0
OS2WinAOffset: 1
OS2WinDescent: 0
OS2WinDOffset: 1
HheadAscent: 0
HheadAOffset: 1
HheadDescent: 0
HheadDOffset: 1
OS2Vendor: 'PfEd'
MarkAttachClasses: 1
DEI: 91125

StartChar: uni0E81
Encoding: 3713 3713 0
Width: 707
VWidth: 1060
Flags: W
HStem: -8 56<98.4817 167.511> 0 21G<503 590.5> 121 46<99.2789 158.836> 411 55<66.2962 158.641> 524 67<317.787 503.215> 543 48<66.923 147.124>
VStem: 12 50<471.731 536.06> 44 50<52.4521 115.717> 159 72<165 414> 171 60<53.1719 117.47> 535 72<15.8203 495.001>
LayerCount: 2
Fore
SplineSet
62 506 m 3x36a0
 62 480 83 466 111 466 c 3
 130 466 144 468 159 471 c 1
 159 509 145 543 115 543 c 3
 84 543 62 526 62 506 c 3x36a0
171 85 m 3xb160
 171 105 153 121 133 121 c 3
 114 121 94 104 94 85 c 3
 94 65 113 48 133 48 c 3
 154 48 171 65 171 85 c 3xb160
138 167 m 3
 147.62369197 167 153.109022186 165 159 165 c 1
 159 414 l 1
 159 414 138 411 124 411 c 3
 58 411 12 438 12 501 c 3
 12 561 55 591 117 591 c 3xb6a0
 178 591 211 560 221 511 c 1
 276 562 320 591 404 591 c 3
 500 591 608 549 608 466 c 2
 607 67 l 2
 607 48 597 30 584 0 c 1
 503 0 l 1
 503 0 535 47 535 65 c 2
 536 442 l 2
 536 500 483 524 406 524 c 3x7aa0
 338 524 265 479 231 442 c 1
 231 88 l 2
 231 41 194 -8 138 -8 c 3
 86 -8 44 30 44 79 c 259
 44 127 86 167 138 167 c 3
EndSplineSet
EndChar

StartChar: uni0E82
Encoding: 3714 3714 1
Width: 628
VWidth: 1063
Flags: W
HStem: -8 71<82.5494 251.214> 0 21G<431 516.5> 64 69<317.605 449.823> 285 79<107.518 223.265> 434 45<162.823 223.913> 524 67<148.075 385.378>
VStem: 1 72<76.3012 123.413 356.473 464.876> 110 50<366.822 431.772> 227 50<367.947 431.238> 451 72<0.539446 57.9601 312.374 469.587>
LayerCount: 2
Fore
SplineSet
196 479 m 3xbfc0
 239 479 277 437 277 388 c 3
 277 328 212 285 137 285 c 3
 61 285 3 340 3 414 c 3
 3 534 124 591 263 591 c 3
 414 591 529 544 529 399 c 3
 529 285 451 214 370 187 c 0
 337 176 258 165 186 154 c 16
 142 148 73 121 73 105 c 3
 73 73 129 63 154 63 c 3xbfc0
 263 63 306 133 394 133 c 3
 463 133 523 110 523 42 c 3
 523 19 522 13 511 0 c 1
 431 0 l 1x7fc0
 438 10 451 28 451 39 c 3
 451 52 435 64 384 64 c 3
 318 64 273 -8 168 -8 c 3
 87 -8 1 10 1 105 c 3
 1 171 92 205 181 216 c 0
 235 223 285 232 330 243 c 0
 385 257 457 316 457 389 c 3
 457 498 358 524 262 524 c 3
 183 524 75 494 75 412 c 3
 75 369 88 353 118 347 c 1
 112 358 110 372 110 388 c 3
 110 439 145 479 196 479 c 3xbfc0
160 399 m 3
 160 382 176 364 193 364 c 3
 210 364 227 381 227 399 c 3
 227 419 212 434 193 434 c 3
 175 434 160 418 160 399 c 3
EndSplineSet
EndChar

StartChar: uni0E84
Encoding: 3716 3716 2
Width: 676
VWidth: 1059
Flags: W
HStem: -8 61<124.312 253.432> 0 21G<456 546> 129 51<184.872 254.297> 227 54<137.378 235.196> 359 47<145.868 233.991> 523 68<165.21 394.283>
VStem: 3 72<96.7151 264.263 360.582 451.919> 131 50<65.0322 124.367> 239 50<287.018 353.335> 258 50<57.114 125.594> 490 72<26.4537 455.462>
LayerCount: 2
Fore
SplineSet
197 227 m 3x7fa0
 149 227 118 242 92 265 c 1
 81 246 75 222 75 191 c 3
 75 131 91 79 134 65 c 1
 134 65 131 83 131 87 c 3
 131 136 178 180 221 180 c 3
 266 180 308 139 308 87 c 3
 308 24 249 -8 189 -8 c 3xbf60
 64 -8 3 73 3 195 c 3
 3 247 22 276 47 311 c 1
 28 339 7 367 7 409 c 3
 7 531 156 591 292 591 c 3
 420 591 562 523 562 430 c 2
 562 97 l 2
 562 53 553 35 539 0 c 1
 456 0 l 1
 469 29 490 66 490 97 c 2
 490 406 l 2
 490 474 372 523 295 523 c 3
 193 523 79 489 79 396 c 3
 79 379 80 369 88 360 c 1
 113 391 142 406 195 406 c 3
 248 406 289 369 289 317 c 3
 289 265 248 227 197 227 c 3x7fa0
189 281 m 3
 212 281 239 291 239 317 c 3x3fa0
 239 342 220 359 195 359 c 3
 170 359 146 344 125 314 c 1
 146 292 168 281 189 281 c 3
220 53 m 3xbf60
 241 53 258 71 258 93 c 3
 258 114 241 129 220 129 c 3
 201 129 181 112 181 93 c 3
 181 70 195 53 220 53 c 3xbf60
EndSplineSet
EndChar

StartChar: uni0E87
Encoding: 3719 3719 3
Width: 526
VWidth: 1063
Flags: W
HStem: -167 62<21.077 225.71> 342 54<53.4359 120.029> 536 55<103.589 286.599>
VStem: -1 50<400.023 467.423> 124 50<400.382 468.978> 364 72<-8.56445 471.465>
LayerCount: 2
Fore
SplineSet
124 435 m 3
 124 455 107 473 87 473 c 259
 66 473 49 456 49 435 c 3
 49 413 66 396 87 396 c 259
 108 396 124 414 124 435 c 3
174 430 m 3
 174 380 135 342 85 342 c 259
 29 342 -1 379 -1 449 c 3
 -1 540 107 591 201 591 c 3
 318 591 436 537 436 422 c 2
 436 66 l 2
 436 -94 276 -167 132 -167 c 3
 101 -167 57 -164 0 -158 c 1
 1 -75 l 1
 40 -90 61 -105 117 -105 c 3
 207 -105 364 -44 364 46 c 2
 364 422 l 2
 364 475 289 536 194 536 c 3
 147 536 126 529 102 517 c 1
 143 511 174 474 174 430 c 3
EndSplineSet
EndChar

StartChar: uni0E88
Encoding: 3720 3720 4
Width: 673
VWidth: 1060
Flags: W
HStem: -8 21G<362 442> 232 51<242.817 311.839> 361 70<76.6074 109.1> 371 47<242.66 315.361> 521 70<132.894 431.081>
VStem: 3 72<435.546 483.043> 187 50<287.816 366.233> 321 72<78.7824 226 290.006 364.725> 484 72<298.337 476.15>
LayerCount: 2
Fore
SplineSet
474 82 m 0xef80
 468 36 462 -8 422 -8 c 2
 388 -8 l 2
 336 -8 321 125 321 192 c 2
 321 226 l 1
 310 235 l 1
 302 233 293 232 283 232 c 3
 235 232 187 269 187 324 c 3
 187 379 227 418 286 418 c 3
 359 418 393 372 393 226 c 3
 393 159 398 112 409 75 c 1
 434 274 484 264 484 418 c 3xdf80
 484 509 382 521 288 521 c 3
 219 521 75 502 75 457 c 3
 75 435 107 433 128 431 c 1
 107 361 l 1
 51 368 3 394 3 454 c 3
 3 559 182 591 290 591 c 3
 431 591 556 550 556 428 c 3
 556 309 487 183 474 82 c 0xef80
321 327 m 3
 321 352 306 371 278 371 c 3
 253 371 237 352 237 329 c 3
 237 301 254 283 276 283 c 3
 299 283 321 303 321 327 c 3
EndSplineSet
EndChar

StartChar: uni0E8A
Encoding: 3722 3722 5
Width: 678
VWidth: 1063
Flags: W
HStem: -8 64<123.653 296.539> 307 49<76.6462 147.913> 424 45<100.395 146.458> 522 69<166.477 421.646>
VStem: 23 50<360.825 420.898> 51 72<64.0973 113.531> 150 50<359.542 419.558> 508 72<-180.855 49.2408 284.407 450.853>
LayerCount: 2
Fore
SplineSet
150 387 m 3xfb
 150 410 132 424 108 424 c 3
 90 424 73 408 73 390 c 3
 73 371 93 356 112 356 c 3
 133 356 150 368 150 387 c 3xfb
530 -214 m 1
 513 -157 508 -118 508 -55 c 2
 508 21 l 2
 508 44 488 55 445 55 c 3
 383 55 317 -8 197 -8 c 3
 94 -8 51 39 51 94 c 3xf7
 51 133 106 156 210 163 c 0
 244 165 285 172 331 183 c 0
 422 205 512 269 512 371 c 3
 512 478 415 522 307 522 c 3
 205 522 145 506 100 468 c 1
 106 469 111 469 116 469 c 3
 152 469 200 436 200 392 c 3
 200 339 160 307 115 307 c 3
 78 307 23 351 23 415 c 3xfb
 23 535 172 591 305 591 c 3
 474 591 584 519 584 364 c 3
 584 230 469 167 365 132 c 0
 327 119 285 109 235 105 c 0
 182 100 123 97 123 80 c 0xf7
 123 63 178 56 196 56 c 3
 296 56 349 120 459 120 c 3
 523 120 580 94 580 33 c 2
 580 -78 l 2
 580 -126 590 -171 612 -195 c 1
 530 -214 l 1
EndSplineSet
EndChar

StartChar: uni0E8D
Encoding: 3725 3725 6
Width: 667
VWidth: 1063
Flags: W
HStem: -8 70<176.003 388.232> 243 67<124.288 273.323> 403 52<163.35 229.847> 539 52<163.286 228.875> 560 20G<440 530.5>
VStem: -1 72<131.312 204.037 346.84 488.924> 234 50<459.337 534.816> 475 72<129.669 558.145>
LayerCount: 2
Fore
SplineSet
475 462 m 2xf7
 475 514 462 547 440 580 c 1
 526 580 l 1xef
 535 552 547 528 547 491 c 2
 547 154 l 2
 547 66 407 -8 281 -8 c 3
 151 -8 -1 62 -1 178 c 3
 -1 220 21 252 65 274 c 1
 31 296 -1 351 -1 392 c 3
 -1 505 64 591 186 591 c 3
 250 591 284 555 284 497 c 3
 284 444 241 403 194 403 c 3
 139 403 109 445 103 499 c 1
 80 487 71 436 71 398 c 3
 71 329 152 310 212 310 c 11
 236 310 273 314 273 314 c 1
 280 245 l 1
 280 245 253 243 235 243 c 3
 150 243 71 204 71 176 c 3
 71 111 201 62 285 62 c 3
 368 62 475 107 475 180 c 2
 475 462 l 2xf7
196 455 m 3
 219 455 234 474 234 496 c 3
 234 520 219 539 197 539 c 3xf7
 172 539 159 522 159 497 c 3
 159 471 176 455 196 455 c 3
EndSplineSet
EndChar

StartChar: uni0E94
Encoding: 3732 3732 7
Width: 685
VWidth: 1063
Flags: W
HStem: -8 59<136.328 208.961> 0 21G<375 512> 133 48<133.171 210.923> 523 68<182.645 409.426>
VStem: 4 72<117.847 436.938> 215 50<57.5446 127.898> 502 72<105.367 446.341>
LayerCount: 2
Fore
SplineSet
574 394 m 2xbe
 574 170 l 2
 574 113 537 43 487 0 c 1
 375 0 l 1x7e
 424 37 502 107 502 161 c 2
 502 370 l 2
 502 478 403 523 295 523 c 3
 193 523 76 472 76 370 c 2
 76 184 l 2
 76 157 81 135 87 117 c 1
 92 153 140 181 177 181 c 3
 215 181 265 141 265 88 c 3
 265 32 217 -8 169 -8 c 3
 68 -8 4 71 4 171 c 2
 4 410 l 2
 4 519 170 591 295 591 c 3
 442 591 574 528 574 394 c 2xbe
129 94 m 3
 129 77 145 51 171 51 c 3xbe
 199 51 215 73 215 94 c 3
 215 116 199 133 172 133 c 3
 148 133 129 119 129 94 c 3
EndSplineSet
EndChar

StartChar: uni0E95
Encoding: 3733 3733 8
Width: 772
VWidth: 1063
Flags: W
HStem: -8 54<167.48 242.615> 0 21G<444 589> 133 46<166.071 242.097> 523 68<122.424 226.127 437.404 545.291>
VStem: 14 72<119.257 481.174> 249 50<52.2041 125.957> 585 72<111.485 475.622>
LayerCount: 2
Fore
SplineSet
495 591 m 3xbe
 599 591 657 505 657 393 c 2
 657 199 l 2
 657 100 620 55 558 0 c 1
 444 0 l 1x7e
 513 48 585 108 585 175 c 2
 585 370 l 2
 585 441 561 523 498 523 c 3
 449 523 399 475 375 433 c 0
 368 419 353 405 335 405 c 3
 321 405 302 422 297 432 c 0
 270 470 214 523 170 523 c 3
 108 523 86 441 86 408 c 2
 86 193 l 2
 86 164 87 132 110 116 c 1
 121 155 165 179 201 179 c 3
 250 179 299 143 299 87 c 3
 299 29 250 -8 192 -8 c 3
 92 -8 14 66 14 170 c 2
 13 395 l 2
 12 506 69 591 173 591 c 3
 248 591 303 555 334 509 c 1
 367 550 421 591 495 591 c 3xbe
249 92 m 3
 249 109 233 133 204 133 c 3
 186 133 160 118 160 91 c 3
 160 68 176 46 203 46 c 3xbe
 230 46 249 65 249 92 c 3
EndSplineSet
EndChar

StartChar: uni0E96
Encoding: 3734 3734 9
Width: 645
VWidth: 1053
Flags: W
HStem: -8 48<148.27 218.972> 118 47<155.36 219.502> 411 60<-7.88381 83> 522 69<240.21 418.892> 544 47<-7.56258 73.9355>
VStem: -61 50<475.912 537.833> 83 72<162 415> 83 60<45.4521 113.819> 224 50<45.7712 112.826> 452 72<-152.05 491.65>
LayerCount: 2
Fore
SplineSet
83 475 m 1xedc0
 83 496 l 2
 83 509 69 544 42 544 c 3
 11 544 -11 533 -11 506 c 3
 -11 474 17 471 48 471 c 3
 53 471 83 475 83 475 c 1xedc0
224 79 m 259
 224 101 205 118 183 118 c 3
 161 118 143 101 143 79 c 259
 143 58 162 40 183 40 c 3
 204 40 224 58 224 79 c 259
182 -8 m 3
 124 -8 83 32 83 89 c 2xf5c0
 83 415 l 1
 72 413 61 411 48 411 c 0
 -4 411 -61 441 -61 496 c 3
 -61 558 -21 591 42 591 c 3xeec0
 105 591 134 561 151 511 c 1
 197 548 242 591 324 591 c 3
 415 591 524 554 524 469 c 2
 524 42 l 2
 524 -70 534 -177 586 -213 c 1
 501 -247 l 1
 470 -187 452 -103 452 -10 c 2
 452 444 l 2
 452 500 388 522 326 522 c 3
 242 522 206 474 155 441 c 1
 155 162 l 1xf6c0
 161 164 169 165 182 165 c 3
 236 165 274 127 274 78 c 3
 274 30 235 -8 182 -8 c 3
EndSplineSet
EndChar

StartChar: uni0E97
Encoding: 3735 3735 10
Width: 792
VWidth: 1063
Flags: W
HStem: -8 68<126.594 288.199> 0 21G<566 664> 390 62<61.4568 123.056> 525 66<443.036 572.594> 539 52<60.1971 166.877>
VStem: 4 72<106.987 224.281> 5 50<459.699 531.643> 176 60<461.386 528.839> 336 72<103.99 489.037> 607 72<31.1628 488.906>
LayerCount: 2
Back
SplineSet
505 591 m 3xb5c0
 619 591 679 528 679 412 c 2
 679 106 l 2
 679 58 673 35 655 0 c 1
 561 0 l 1x75c0
 580 30 602 58 602 107 c 2
 602 409 l 2
 602 478 573 525 505 525 c 3
 439 525 413 482 413 412 c 2
 413 161 l 2
 413 57 325 -8 216 -8 c 3
 94 -8 4 46 4 172 c 3xb5c0
 4 265 82 317 124 395 c 1
 117 392 109 390 101 390 c 3
 55 390 5 435 5 489 c 3
 5 551 51 591 113 591 c 3xabc0
 181 591 241 553 241 491 c 3
 241 436 215 405 190 354 c 16
 168 310 81 215 81 172 c 3
 81 96 145 60 213 60 c 27
 275 60 336 100 336 160 c 2
 336 412 l 2
 336 531 383 591 505 591 c 3xb5c0
169 495 m 3
 169 517 148 539 121 539 c 3
 92 539 74 524 74 495 c 3x2bc0
 74 468 95 452 121 452 c 0
 149 452 169 471 169 495 c 3
EndSplineSet
Fore
SplineSet
505 591 m 3xb5c0
 619 591 679 528 679 412 c 2
 679 106 l 2
 679 58 673 35 655 0 c 1
 566 0 l 1x75c0
 585 30 607 58 607 107 c 2
 607 409 l 2
 607 478 578 525 505 525 c 3
 444 525 408 482 408 412 c 2
 408 161 l 2
 408 57 325 -8 216 -8 c 3
 94 -8 4 46 4 172 c 3xb5c0
 4 265 82 317 124 395 c 1
 117 392 109 390 101 390 c 3
 55 390 5 435 5 489 c 3
 5 551 51 591 113 591 c 3xabc0
 186 591 236 553 236 491 c 3
 236 436 210 405 185 354 c 16
 163 310 76 215 76 172 c 3
 76 96 139 60 213 60 c 11
 275 60 336 100 336 160 c 2
 336 412 l 2
 336 531 383 591 505 591 c 3xb5c0
176 495 m 3
 176 517 155 539 115 539 c 3
 73 539 55 524 55 495 c 3x2bc0
 55 468 76 452 115 452 c 0
 156 452 176 471 176 495 c 3
EndSplineSet
EndChar

StartChar: uni0E99
Encoding: 3737 3737 11
Width: 770
VWidth: 1063
Flags: W
HStem: -8 69<1 75.2656 303.505 497.502> 404 51<57.566 147.455> 545 46<57.3644 154.115> 560 20G<496 590.5>
VStem: 1 50<462.556 537.6> 148 72<133.981 412> 160 60<463.261 538.444> 535 72<94.3275 548.746>
LayerCount: 2
Back
SplineSet
607 118 m 2xde
 607 29 485 -8 398 -8 c 3
 261 -8 247 65 182 65 c 3
 143 65 123 -8 1 -8 c 1
 1 61 l 1
 81 61 148 129 148 202 c 2
 148 412 l 1
 136 406 121 404 104 404 c 3
 48 404 1 440 1 497 c 3
 1 559 36 591 106 591 c 3xee
 171 591 224 552 224 490 c 2
 224 203 l 2
 224 112 313 61 402 61 c 3
 465 61 534 83 534 143 c 2
 534 477 l 2
 534 519 510 551 495 580 c 1
 585 580 l 1
 596 549 607 523 607 477 c 2
 607 118 l 2xde
148 500 m 3
 148 527 131 545 107 545 c 3
 80 545 61 527 61 501 c 3
 61 476 78 455 103 455 c 3
 129 455 148 475 148 500 c 3
EndSplineSet
Fore
SplineSet
607 118 m 2xdd
 607 29 485 -8 398 -8 c 3
 261 -8 247 65 182 65 c 3
 143 65 123 -8 1 -8 c 1
 1 61 l 1
 81 61 148 129 148 202 c 2
 148 412 l 1xdd
 136 406 121 404 104 404 c 3
 48 404 1 440 1 497 c 3
 1 559 36 591 106 591 c 3
 171 591 220 552 220 490 c 2xeb
 220 203 l 2
 220 112 309 61 400 61 c 3
 466 61 535 83 535 143 c 2
 535 477 l 2
 535 519 511 551 496 580 c 1
 585 580 l 1
 596 549 607 523 607 477 c 2
 607 118 l 2xdd
160 500 m 3xeb
 160 527 143 545 107 545 c 3
 70 545 51 527 51 501 c 3
 51 476 68 455 103 455 c 3
 141 455 160 475 160 500 c 3xeb
EndSplineSet
EndChar

StartChar: uni0E9A
Encoding: 3738 3738 12
Width: 695
VWidth: 1063
Flags: W
HStem: -8 70<153.484 395.706> 392 58<61.1219 110.056> 533 58<58.5839 147.448> 560 20G<457 549.5>
VStem: 1 72<126.37 238.245> 2 50<458.488 525.937> 153 60<456.916 527.377> 497 72<138.781 545.504>
LayerCount: 2
Back
SplineSet
72 188 m 3xeb
 72 94 179 62 278 62 c 3
 385 62 500 108 500 205 c 2
 500 473 l 2
 500 517 475 549 460 580 c 1
 546 580 l 1
 553 553 569 532 569 501 c 2
 569 205 l 2
 569 65 430 -8 278 -8 c 3
 141 -8 1 44 1 188 c 3xdb
 1 267 65 313 111 386 c 1
 110 392 102 392 97 392 c 3
 42 392 2 430 2 486 c 3xd7
 2 547 37 591 97 591 c 3
 159 591 213 553 213 489 c 3
 213 450 204 417 187 388 c 0
 158 338 72 218 72 188 c 3xeb
144 492 m 3
 144 517 127 533 100 533 c 3
 75 533 55 513 55 492 c 3xe7
 55 475 74 450 100 450 c 3
 129 450 144 470 144 492 c 3
EndSplineSet
Fore
SplineSet
73 188 m 3xeb
 73 94 180 62 278 62 c 3
 382 62 497 108 497 205 c 2
 497 473 l 2
 497 517 472 549 457 580 c 1
 546 580 l 1
 553 553 569 532 569 501 c 2
 569 205 l 2
 569 65 430 -8 278 -8 c 3
 141 -8 1 44 1 188 c 3xdb
 1 267 65 313 111 386 c 1
 110 392 102 392 97 392 c 3
 42 392 2 430 2 486 c 3xd7
 2 547 37 591 97 591 c 3
 159 591 213 553 213 489 c 3
 213 450 204 417 187 388 c 0
 158 338 73 218 73 188 c 3xeb
153 492 m 3
 153 517 136 533 102 533 c 3
 72 533 52 513 52 492 c 3xe7
 52 475 71 450 102 450 c 3
 138 450 153 470 153 492 c 3
EndSplineSet
EndChar

StartChar: uni0E9B
Encoding: 3739 3739 13
Width: 697
VWidth: 1058
Flags: W
HStem: -8 72<191.433 425.478> 389 57<100.261 149.578> 532 59<98.8255 183.31> 859 57<523.277 651.917> 886 57<464.713 550.524>
VStem: 41 72<125.719 239.46> 42 50<454.171 524.371> 189 60<453.812 525.585> 404 60<849.061 885.172> 525 72<143.881 782.879>
LayerCount: 2
Back
SplineSet
181 489 m 3xe3c0
 181 513 164 532 142 532 c 3
 120 532 102 510 102 489 c 3
 102 472 118 446 142 446 c 3
 165 446 181 472 181 489 c 3xe3c0
680 889 m 1
 635 866 621 859 576 859 c 3xf5c0
 543 859 521 886 491 886 c 3
 476 886 464 878 464 864 c 0
 464 856 473 850 490 848 c 0
 537 843 597 803 597 762 c 2
 597 209 l 2
 597 73 463 -8 313 -8 c 3
 169 -8 41 48 41 187 c 3xedc0
 41 266 109 317 150 385 c 1
 149 388 141 389 136 389 c 3
 81 389 42 430 42 484 c 3xebc0
 42 544 78 591 137 591 c 3
 193 591 249 556 249 488 c 3
 249 449 238 405 223 381 c 0
 196 336 110 219 110 187 c 3
 110 96 212 64 313 64 c 3
 417 64 529 112 529 210 c 2
 529 758 l 2
 529 773 493 794 468 799 c 0
 437 805 406 834 406 874 c 3
 406 913 451 943 495 943 c 3xedc0
 536 943 543 916 579 916 c 3xf5c0
 601 916 624 922 642 935 c 1
 680 889 l 1
EndSplineSet
Fore
SplineSet
189 489 m 3xe3c0
 189 513 172 532 141 532 c 3
 110 532 92 510 92 489 c 3
 92 472 108 446 141 446 c 3
 173 446 189 472 189 489 c 3xe3c0
680 889 m 1
 635 866 621 859 576 859 c 3xf5c0
 543 859 521 886 491 886 c 3
 476 886 464 878 464 864 c 0
 464 856 473 850 490 848 c 0
 537 843 597 803 597 762 c 2
 597 209 l 2
 597 73 463 -8 313 -8 c 3
 169 -8 41 48 41 187 c 3xedc0
 41 266 109 317 150 385 c 1
 149 388 141 389 136 389 c 3
 81 389 42 430 42 484 c 3xebc0
 42 544 78 591 137 591 c 3
 193 591 249 556 249 488 c 3
 249 449 238 405 223 381 c 0
 196 336 113 219 113 187 c 3
 113 96 215 64 313 64 c 3
 413 64 525 112 525 210 c 2
 525 758 l 2
 525 773 491 794 466 799 c 0
 435 805 404 834 404 874 c 3
 404 913 449 943 495 943 c 3xedc0
 536 943 543 916 579 916 c 3xf5c0
 601 916 624 922 642 935 c 1
 680 889 l 1
EndSplineSet
EndChar

StartChar: uni0E9C
Encoding: 3740 3740 14
Width: 754
VWidth: 1063
Flags: W
HStem: -8 68<136.053 262.685 422.592 538.404> 408 55<150.801 224.296 489.939 577.34> 538 53<489.296 571.06> 546 45<152.2 224.74> 560 20G<317 389>
VStem: 12 72<117.297 467.675> 229 50<466.005 541.498> 317 72<111.962 580> 435 50<469.376 533.468> 587 72<111.779 422> 648 60<523.177 593>
LayerCount: 2
Fore
SplineSet
536 463 m 3xe780
 565 463 579 473 579 496 c 3
 579 518 551 538 528 538 c 3
 505 538 485 523 485 502 c 3
 485 477 508 463 536 463 c 3xe780
147 503 m 3
 147 478 166 459 185 459 c 3
 209 459 229 480 229 502 c 3
 229 528 216 546 188 546 c 3xd780
 164 546 147 527 147 503 c 3
389 161 m 2
 389 108 427 60 471 60 c 3
 546 60 587 118 587 201 c 2xcfc0
 588 422 l 1
 564 412 546 408 527 408 c 3
 479 408 435 456 435 501 c 3
 435 560 482 591 534 591 c 3
 584 591 621 558 640 522 c 1
 647 547 648 579 648 611 c 1
 708 593 l 1xe7a0
 708 515 702 476 659 448 c 1
 659 205 l 2
 659 84 592 -8 472 -8 c 3
 427 -8 385 13 347 55 c 1
 320 23 284 -8 205 -8 c 3
 82 -8 12 89 12 192 c 2
 11 413 l 2
 11 516 78 591 180 591 c 3xd7c0
 244 591 279 550 279 498 c 3
 279 442 232 405 186 405 c 3
 148 405 109 427 97 469 c 1
 85 447 84 412 84 378 c 2
 84 201 l 2
 84 127 122 60 206 60 c 3
 251 60 317 114 317 161 c 2
 317 580 l 1
 389 580 l 1xcfc0
 389 161 l 2
EndSplineSet
EndChar

StartChar: uni0E9D
Encoding: 3741 3741 15
Width: 788
VWidth: 1063
Flags: W
HStem: -8 68<148.422 279.062 437.931 554.068> 405 54<166.816 236.07> 538 53<166.472 235.665> 560 20G<333 405> 859 57<601.277 729.892> 886 57<542.713 628.524>
VStem: 28 72<114.766 467.675> 241 50<464.579 532.625> 333 72<111.962 580> 482 60<849.061 885.127> 602 72<111.19 783.587>
LayerCount: 2
Fore
SplineSet
162 499 m 3xe3e0
 162 476 180 459 198 459 c 3
 221 459 241 477 241 498 c 3
 241 523 217 538 201 538 c 3
 177 538 162 522 162 499 c 3xe3e0
758 889 m 1
 713 866 698 859 654 859 c 3xcbe0
 621 859 599 886 569 886 c 3
 554 886 542 878 542 864 c 3
 542 856 551 850 568 848 c 0
 615 843 674 805 674 762 c 2
 674 205 l 2
 674 84 607 -8 487 -8 c 3
 442 -8 401 13 363 55 c 1
 336 24 291 -8 220 -8 c 3
 98 -8 29 83 28 192 c 2
 27 413 l 2
 27 516 94 591 195 591 c 3xe7e0
 255 591 291 550 291 498 c 3
 291 449 245 405 202 405 c 3
 158 405 123 427 112 469 c 1
 105 456 100 439 100 422 c 2
 100 206 l 2
 100 132 128 60 221 60 c 3
 267 60 333 114 333 161 c 2
 333 580 l 1
 405 580 l 1
 405 161 l 2
 405 108 442 60 486 60 c 3
 564 60 602 118 602 201 c 2
 602 758 l 2
 602 774 571 794 546 799 c 0
 515 805 482 834 482 874 c 3
 482 906 527 943 573 943 c 3xd7e0
 614 943 621 916 657 916 c 3xcbe0
 679 916 702 922 720 935 c 1
 758 889 l 1
EndSplineSet
EndChar

StartChar: uni0E9E
Encoding: 3742 3742 16
Width: 762
VWidth: 1063
Flags: W
HStem: -8 68<104.483 251.606 399.562 494.797> 396 61<60.2656 112.851> 541 50<59.5795 146.714> 560 20G<294 366 530 602>
VStem: 4 72<89.7778 224.375> 5 50<463.285 535.431> 151 60<463.529 535.578> 294 72<103.693 580> 530 72<100.031 580>
LayerCount: 2
Fore
SplineSet
449 60 m 259xdb80
 492 60 530 114 530 162 c 2
 530 580 l 1
 602 580 l 1
 602 162 l 2
 602 69 542 -8 450 -8 c 3
 399 -8 366 19 330 55 c 1
 290 16 262 -8 194 -8 c 3
 65 -8 4 39 4 170 c 3xdb80
 4 246 77 334 113 391 c 1
 110 394 104 396 99 396 c 3
 42 396 5 435 5 487 c 3
 5 546 40 591 100 591 c 3xe780
 158 591 211 553 211 491 c 3
 211 431 187 386 166 345 c 0
 148 310 76 202 76 170 c 3
 76 81 110 60 194 60 c 3
 243 60 294 109 294 162 c 2
 294 580 l 1
 366 580 l 1
 366 162 l 2
 366 112 401 60 449 60 c 259xdb80
151 499 m 3
 151 523 137 541 104 541 c 3
 69 541 55 524 55 499 c 3xe780
 55 475 73 457 104 457 c 3
 132 457 151 476 151 499 c 3
EndSplineSet
EndChar

StartChar: uni0E9F
Encoding: 3743 3743 17
Width: 783
VWidth: 1063
Flags: W
HStem: -8 68<147.998 303.007 451.448 569.781> 392 59<99.2977 155.613> 534 57<98.2911 191.879> 560 20G<345 417> 859 57<617.052 745.392> 886 57<558.713 643.561>
VStem: 42 50<459.873 526.112> 45 72<89.9881 225.019> 198 60<458.054 525.95> 345 72<102.437 580> 498 60<849.061 885.172> 618 72<113.547 781.745>
LayerCount: 2
Back
SplineSet
145 534 m 3xe2f0
 125 534 102 516 102 493 c 3
 102 470 127 451 145 451 c 3
 169 451 188 470 188 493 c 3
 188 515 167 534 145 534 c 3xe2f0
774 889 m 1
 729 866 714 859 670 859 c 0xc9f0
 636 859 614 886 585 886 c 0
 570 886 558 878 558 864 c 3
 558 856 567 850 584 848 c 0
 624 844 690 805 690 762 c 2
 690 209 l 2
 690 86 623 -8 503 -8 c 3
 449 -8 418 20 378 55 c 1
 342 13 296 -8 240 -8 c 3
 116 -8 45 32 45 157 c 0xc5f0
 45 251 113 329 157 392 c 1
 153 392 149 392 145 392 c 0
 80 392 42 424 42 488 c 3
 42 552 80 591 143 591 c 3xe6f0
 200 591 260 558 260 492 c 3
 260 430 227 375 202 330 c 0
 173 284 115 213 115 150 c 3
 115 76 172 61 240 60 c 0
 296 60 348 105 348 161 c 2
 348 580 l 1
 417 580 l 1
 417 161 l 2
 417 111 454 60 502 60 c 3
 588 60 622 122 622 210 c 2
 622 758 l 2
 622 769 586 794 561 799 c 0
 530 805 500 834 500 874 c 3
 500 913 545 943 589 943 c 3xd5f0
 631 943 636 916 673 916 c 0xc9f0
 695 916 717 922 735 935 c 1
 774 889 l 1
EndSplineSet
Fore
SplineSet
145 534 m 3xe2f0
 115 534 92 516 92 493 c 3
 92 470 117 451 145 451 c 3
 179 451 198 470 198 493 c 3
 198 515 177 534 145 534 c 3xe2f0
774 889 m 1
 729 866 714 859 670 859 c 0xc9f0
 636 859 614 886 585 886 c 0
 570 886 558 878 558 864 c 3
 558 856 567 850 584 848 c 0
 624 844 690 805 690 762 c 2
 690 209 l 2
 690 86 623 -8 503 -8 c 3
 449 -8 418 20 378 55 c 1
 342 13 296 -8 240 -8 c 3
 116 -8 45 32 45 157 c 0xc5f0
 45 251 113 329 157 392 c 1
 153 392 149 392 145 392 c 0
 80 392 42 424 42 488 c 3
 42 552 80 591 143 591 c 3xe6f0
 198 591 258 558 258 492 c 3
 258 430 227 375 202 330 c 0
 173 284 117 213 117 150 c 3
 117 76 174 60 240 60 c 3
 293 60 345 105 345 161 c 2
 345 580 l 1
 417 580 l 1
 417 161 l 2
 417 111 454 60 502 60 c 3
 584 60 618 122 618 210 c 2
 618 758 l 2
 618 769 586 794 561 799 c 0
 530 805 498 834 498 874 c 3
 498 913 543 943 589 943 c 3xd5f0
 631 943 636 916 673 916 c 0xc9f0
 695 916 717 922 735 935 c 1
 774 889 l 1
EndSplineSet
EndChar

StartChar: uni0EA1
Encoding: 3745 3745 18
Width: 738
VWidth: 1058
Flags: W
HStem: -8 69<79.446 176.69 297.414 499.302> 560 20G<160 222.5 512 606.5>
VStem: 1 72<68.8125 139.49> 102 72<284.533 518.648> 230 72<211.513 485.275> 552 72<107.502 547.041>
LayerCount: 2
Fore
SplineSet
552 475 m 2
 552 516 526 556 512 580 c 1
 600 580 l 1
 613 550 623 517 624 475 c 1
 624 163 l 2
 624 44 523 -8 403 -8 c 3
 331 -8 276 8 235 44 c 1
 210 9 174 -8 123 -8 c 3
 53 -8 1 36 1 107 c 3
 1 171 46 193 90 217 c 1
 107 197 113 182 120 151 c 1
 98 141 73 137 73 107 c 3
 73 79 92 61 123 61 c 3
 152 61 185 76 185 105 c 1
 131 238 102 343 102 423 c 3
 102 512 140 591 180 591 c 3
 265 591 302 460 302 345 c 3
 302 274 290 203 264 128 c 1
 276 81 323 61 403 61 c 3
 479 61 552 92 552 163 c 2
 552 475 l 2
189 520 m 1
 178 492 174 467 174 441 c 3
 174 375 188 307 215 209 c 1
 225 276 230 326 230 363 c 3
 230 411 222 479 189 520 c 1
EndSplineSet
EndChar

StartChar: uni0EA2
Encoding: 3746 3746 19
Width: 695
VWidth: 1063
Flags: W
HStem: -8 70<207.226 430.525> 243 64<173.355 319.25> 404 52<208.23 274.556> 535 56<208.056 273.523> 859 57<521.409 649.392> 886 57<462.713 548.41>
VStem: 39 72<126.785 203.606 343.491 487.754> 279 50<460.439 529.752> 402 60<849.061 885.172> 524 72<132.664 780.129>
LayerCount: 2
Fore
SplineSet
240 456 m 3xf3c0
 261 456 279 473 279 495 c 3
 279 511 263 535 241 535 c 3
 218 535 203 512 203 496 c 3
 203 478 219 456 240 456 c 3xf3c0
678 889 m 1
 633 866 618 859 574 859 c 3xfbc0
 541 859 519 886 489 886 c 3
 474 886 462 878 462 864 c 0
 462 856 471 850 488 848 c 0
 528 844 595 806 595 762 c 2
 596 154 l 2
 596 61 451 -8 329 -8 c 3
 194 -8 39 57 39 179 c 3
 39 218 61 249 106 272 c 1
 64 298 39 345 39 391 c 3
 39 513 115 591 229 591 c 3
 297 591 329 537 329 498 c 3
 329 454 285 404 238 404 c 3
 181 404 150 443 145 500 c 1
 119 486 111 433 111 396 c 3
 111 327 185 307 257 307 c 3
 262 307 319 312 319 312 c 1
 327 243 l 1
 271 243 111 226 111 175 c 3
 111 98 246 62 332 62 c 3
 406 62 524 110 524 179 c 2
 524 758 l 2
 524 770 485 795 466 799 c 0
 434 805 402 834 402 874 c 3
 402 913 447 943 493 943 c 3xf7c0
 535 943 540 916 577 916 c 3xfbc0
 599 916 621 922 639 935 c 1
 678 889 l 1
EndSplineSet
EndChar

StartChar: uni0EA3
Encoding: 3747 3747 20
Width: 688
VWidth: 1063
Flags: W
HStem: -8 61<187.716 427.531> 176 46<83.8601 156.041> 522 69<135.295 457.463>
VStem: 17 72<434.879 485.865> 28 50<104.161 169.797> 161 50<102.157 170.819> 504 72<108.259 211.487>
LayerCount: 2
Fore
SplineSet
119 98 m 3xee
 143 98 161 112 161 136 c 3
 161 158 142 176 120 176 c 3
 100 176 78 157 78 137 c 3
 78 115 97 98 119 98 c 3xee
504 156 m 3
 504 194 479 224 437 245 c 0
 317 305 148 320 64 378 c 0
 33 398 17 423 17 456 c 3
 17 566 172 591 290 591 c 3
 464 591 544 546 571 478 c 1
 510 436 l 1
 507 437 l 1
 496 502 441 522 285 522 c 3
 213 522 89 507 89 454 c 3xf6
 89 450 102 439 126 425 c 0
 186 391 426 340 503 287 c 0
 551 254 576 212 576 159 c 3
 576 29 420 -8 293 -8 c 3
 170 -8 28 24 28 129 c 3
 28 181 72 222 118 222 c 3
 168 222 211 180 211 127 c 3
 211 103 202 82 186 65 c 1
 210 59 254 53 293 53 c 3
 383 53 504 78 504 156 c 3
EndSplineSet
EndChar

StartChar: uni0EA5
Encoding: 3749 3749 21
Width: 692
VWidth: 1058
Flags: W
HStem: -8 72<436.291 486.442> -8 58<130.228 200.772> 134 49<126.722 202.016> 254 65<109.093 269.283> 520 71<139.713 408.127>
VStem: 4 72<144.229 223.591> 15 72<440.078 491.457> 208 50<57.1178 127.354> 519 72<110.488 406.224>
LayerCount: 2
Fore
SplineSet
15 462 m 3xbb80
 15 556 184 591 296 591 c 3
 487 591 591 483 591 292 c 3
 591 151 580 -8 460 -8 c 3xbb80
 426 -8 399 8 379 40 c 0
 353 78 325 182 286 221 c 0
 270 236 223 254 194 254 c 3
 128 254 76 231 76 164 c 3
 76 156 77 150 78 143 c 1
 101 166 127 183 170 183 c 3
 213 183 258 141 258 86 c 3
 258 33 213 -8 171 -8 c 3
 71 -8 4 52 4 160 c 3x7d80
 4 270 100 319 199 319 c 3
 251 319 302 295 334 274 c 0
 370 250 412 137 438 81 c 0
 443 73 446 64 458 64 c 3
 511 64 519 220 519 292 c 3
 519 444 442 520 296 520 c 3
 215 520 87 509 87 465 c 3
 87 444 104 441 129 433 c 1
 125 414 112 389 104 372 c 1
 64 391 15 417 15 462 c 3xbb80
165 50 m 3x7980
 186 50 208 71 208 92 c 3
 208 114 188 134 165 134 c 3
 138 134 123 119 123 92 c 3
 123 71 144 50 165 50 c 3x7980
EndSplineSet
EndChar

StartChar: uni0EA7
Encoding: 3751 3751 22
Width: 650
VWidth: 1063
Flags: W
HStem: -8 69<131.2 388.632> 205 45<58.1696 132.998> 519 72<140.819 387.89>
VStem: 2 50<120.335 198.825> 13 72<423 470.667> 140 50<120.124 198.769> 480 72<138.197 440.32>
LayerCount: 2
Back
SplineSet
216 157 m 3xf6
 216 109 189 85 148 73 c 1
 194 64 217 61 279 61 c 3
 373 61 478 107 478 206 c 2
 478 367 l 2
 478 476 377 519 263 519 c 3
 176 519 94 501 84 423 c 1
 13 423 l 1xee
 13 547 144 591 264 591 c 3
 423 591 552 526 552 367 c 2
 552 206 l 2
 552 60 423 -8 279 -8 c 3
 155 -8 2 23 2 142 c 3
 2 208 49 250 117 250 c 3
 171 250 216 211 216 157 c 3xf6
115 114 m 3
 141 114 158 134 158 160 c 3
 158 185 140 205 115 205 c 3
 90 205 71 185 71 160 c 3xf6
 71 134 89 114 115 114 c 3
EndSplineSet
Fore
SplineSet
190 157 m 3xf6
 190 109 163 85 129 73 c 1
 175 64 198 61 279 61 c 3
 375 61 480 107 480 206 c 2
 480 367 l 2
 480 476 379 519 263 519 c 3
 177 519 95 501 85 423 c 1
 13 423 l 1xee
 13 547 144 591 264 591 c 3
 423 591 552 526 552 367 c 2
 552 206 l 2
 552 60 423 -8 279 -8 c 3
 155 -8 2 23 2 142 c 3
 2 208 49 250 98 250 c 3
 145 250 190 211 190 157 c 3xf6
96 114 m 3
 122 114 140 134 140 160 c 3
 140 185 121 205 96 205 c 3
 71 205 52 185 52 160 c 3xf6
 52 134 70 114 96 114 c 3
EndSplineSet
EndChar

StartChar: uni0EAA
Encoding: 3754 3754 23
Width: 694
VWidth: 1063
Flags: W
HStem: -8 69<435.967 489.509> -8 53<129.369 203.607> 129 48<127.683 204.239> 250 64<103.068 271.335> 359 68<98.4334 372.477> 522 69<111.108 421.925>
VStem: -1 72<140.78 217.414> 15 72<442.266 500.56> 211 50<53.3327 122.458> 519 72<98.7916 427.501>
LayerCount: 2
Fore
SplineSet
537 499 m 1xbdc0
 578 453 591 391 591 292 c 3
 591 203 587 132 569 78 c 0
 550 25 523 -8 460 -8 c 3xbdc0
 426 -8 399 8 379 39 c 0
 363 62 346 102 329 150 c 0
 310 206 268 250 194 250 c 3
 126 250 71 228 71 162 c 3
 71 152 72 145 78 139 c 1
 101 162 134 177 170 177 c 3
 216 177 261 137 261 83 c 3
 261 33 215 -8 171 -8 c 3
 68 -8 -1 50 -1 157 c 3x7ec0
 -1 266 97 314 199 314 c 3
 282 314 349 273 377 213 c 0
 397 170 418 122 438 78 c 0
 442 70 447 61 458 61 c 3
 484 61 499 96 504 121 c 0
 514 166 519 222 519 292 c 3
 519 367 517 401 489 440 c 1
 431 386 348 359 242 359 c 3
 143 359 15 385 15 467 c 3
 15 554 141 591 242 591 c 3
 354 591 435 577 482 549 c 1
 493 570 505 591 517 611 c 1
 538 601 560 592 583 583 c 1
 572 555 556 527 537 499 c 1xbdc0
242 522 m 3
 168 522 87 512 87 469 c 3
 87 437 141 427 243 427 c 3
 333 427 389 446 439 492 c 1
 400 516 313 522 242 522 c 3
166 45 m 3x7cc0
 187 45 211 66 211 87 c 259
 211 110 190 129 166 129 c 3
 140 129 123 113 123 87 c 3
 123 65 144 45 166 45 c 3x7cc0
EndSplineSet
EndChar

StartChar: uni0EAB
Encoding: 3755 3755 24
Width: 754
VWidth: 1063
Flags: W
HStem: -8 68<123.537 289.102> 0 21G<538 630> 396 60<59.6421 129.773> 447 52<290.406 347.71> 530 61<458.002 564.044> 537 54<60.601 159.605> 549 42<288.581 353.038>
VStem: 4 72<103.793 228.103> 5 50<462.769 529.477> 165 60<462.744 529.19> 238 50<501.295 545.498> 347 72<110.468 449.645> 579 72<33.5703 514.876>
LayerCount: 2
Back
SplineSet
283 525 m 3x13f0
 283 508 300 499 318 499 c 3
 331 499 341 501 353 502 c 1
 353 527 342 549 322 549 c 3
 300 549 283 536 283 525 c 3x13f0
70 496 m 3
 70 472 88 456 110 456 c 3
 134 456 150 475 150 496 c 3
 150 516 134 537 110 537 c 3x25f0
 84 537 70 515 70 496 c 3
573 457 m 2
 573 505 552 530 517 530 c 3x49f0
 488 530 455 511 419 476 c 1
 419 150 l 2
 419 70 316 -8 211 -8 c 3
 89 -8 -2 46 -2 172 c 3
 -2 249 72 321 105 370 c 2
 124 398 l 1
 124 398 109 396 104 396 c 3
 56 396 -1 430 -1 489 c 3
 -1 551 45 591 107 591 c 3xa5f0
 175 591 236 554 236 491 c 3
 236 437 201 378 185 354 c 0
 154 307 76 210 76 172 c 3
 76 92 136 60 208 60 c 3
 278 60 342 110 342 160 c 2
 343 447 l 1
 286 454 238 459 238 520 c 3
 238 569 276 591 325 591 c 3x93f0
 372 591 397 574 412 545 c 1
 433 576 473 591 531 591 c 3
 609 591 651 555 651 474 c 2
 651 107 l 2
 651 70 638 34 622 0 c 1
 532 0 l 1x49f0
 551 30 573 68 573 109 c 2
 573 457 l 2
EndSplineSet
Fore
SplineSet
288 525 m 3x1278
 288 508 305 499 323 499 c 3
 336 499 346 501 358 502 c 1
 358 527 347 549 327 549 c 3
 305 549 288 536 288 525 c 3x1278
55 496 m 3x24f8
 55 472 73 456 110 456 c 3
 149 456 165 475 165 496 c 3
 165 516 149 537 110 537 c 3
 69 537 55 515 55 496 c 3x24f8
579 457 m 2
 579 505 558 530 515 530 c 3
 486 530 455 511 419 476 c 1
 419 150 l 2
 419 70 316 -8 211 -8 c 3
 95 -8 4 46 4 172 c 3x8978
 4 249 78 321 111 370 c 2
 130 398 l 1
 130 398 115 396 110 396 c 3
 62 396 5 430 5 489 c 3
 5 551 51 591 107 591 c 3xa4f8
 164 591 225 554 225 491 c 3
 225 437 195 378 179 354 c 0
 148 307 76 210 76 172 c 3
 76 92 136 60 208 60 c 3
 283 60 347 110 347 160 c 2
 348 447 l 1
 286 454 238 459 238 520 c 3
 238 569 276 591 330 591 c 3x9378
 375 591 397 574 412 545 c 1
 433 576 471 591 529 591 c 3
 607 591 651 555 651 474 c 2
 651 107 l 2
 651 70 638 34 622 0 c 1
 538 0 l 1x4978
 557 30 579 68 579 109 c 2
 579 457 l 2
EndSplineSet
EndChar

StartChar: uni0EAD
Encoding: 3757 3757 25
Width: 695
VWidth: 1058
Flags: W
HStem: -8 70<148.275 408.032> 203 52<56.6832 124.365> 282 73<112.457 374.315> 520 71<146.763 416.185>
VStem: 2 72<387.12 471.084> 2 50<126.642 199.084> 129 50<126.484 198.441> 508 72<145.576 377.155>
LayerCount: 2
Back
SplineSet
200 160 m 3xf7
 200 124 184 100 162 85 c 1
 204 71 251 63 306 62 c 0
 407 62 510 121 510 209 c 2
 510 369 l 1
 509 378 l 1
 441 316 358 282 260 282 c 3
 135 282 2 320 2 431 c 3xfb
 2 557 150 591 289 591 c 3
 450 591 580 524 580 370 c 2
 580 209 l 2
 580 69 458 -8 306 -8 c 3
 169 -8 2 39 2 159 c 3
 2 218 47 255 104 255 c 3
 153 255 200 210 200 160 c 3xf7
484 457 m 1
 450 502 351 520 287 520 c 3
 224 520 73 503 73 431 c 3
 73 361 168 355 263 355 c 3
 359 355 438 397 484 457 c 1
141 162 m 259
 141 184 124 203 102 203 c 259
 80 203 64 184 64 162 c 259xf7
 64 141 81 122 102 122 c 259
 124 122 141 140 141 162 c 259
EndSplineSet
Fore
SplineSet
179 160 m 3xf7
 179 124 163 100 141 85 c 1
 183 71 230 62 306 62 c 3
 405 62 508 121 508 209 c 2
 508 369 l 1
 507 378 l 1
 439 316 356 282 260 282 c 3
 135 282 2 320 2 431 c 3xfb
 2 557 150 591 289 591 c 3
 450 591 580 524 580 370 c 2
 580 209 l 2
 580 69 458 -8 306 -8 c 3
 169 -8 2 39 2 159 c 3
 2 218 47 255 92 255 c 3
 132 255 179 210 179 160 c 3xf7
484 457 m 1
 450 502 351 520 287 520 c 3
 225 520 74 503 74 431 c 3
 74 361 169 355 263 355 c 3
 359 355 438 397 484 457 c 1
129 162 m 259
 129 184 112 203 90 203 c 259
 68 203 52 184 52 162 c 259xf7
 52 141 69 122 90 122 c 259
 112 122 129 140 129 162 c 259
EndSplineSet
EndChar

StartChar: uni0EAE
Encoding: 3758 3758 26
Width: 673
VWidth: 1063
Flags: W
HStem: -8 63<167.243 427.328> 180 48<60.3979 135.571> 451 69<306.762 442.604> 528 63<72.3914 209.387>
VStem: -2 72<459.204 522.232> 4 50<105.745 173.243> 140 50<103.088 175.116> 508 72<112.233 218.942>
LayerCount: 2
Fore
SplineSet
97 99 m 3xf7
 123 99 140 113 140 139 c 3
 140 163 122 180 97 180 c 3
 76 180 54 160 54 139 c 3
 54 117 75 99 97 99 c 3xf7
95 228 m 3
 151 228 190 184 190 131 c 3
 190 106 182 84 165 66 c 1
 197 58 236 55 287 55 c 3
 389 55 508 83 508 164 c 3
 508 203 480 233 440 257 c 0
 360 305 206 334 62 394 c 0
 26 409 -2 426 -2 477 c 0
 -2 552 58 591 128 591 c 3
 234 591 327 520 374 520 c 3
 445 520 482 576 510 626 c 1
 591 606 l 1
 531 517 476 451 373 451 c 3
 290 451 204 528 129 528 c 3
 93 528 70 522 70 492 c 3xfb
 70 474 80 464 90 459 c 0
 200 408 351 381 462 322 c 0
 527 288 580 240 580 164 c 3
 580 41 422 -8 287 -8 c 3
 153 -8 4 21 4 131 c 3
 4 184 42 228 95 228 c 3
EndSplineSet
EndChar

StartChar: uni0EB0
Encoding: 3760 3760 27
Width: 523
VWidth: 1063
Flags: W
HStem: 33 61<138.842 286.57> 212 43<56.1297 118.469> 270 61<138.842 286.57> 449 43<56.1297 118.469>
VStem: 2 50<143.811 208.444 380.811 445.444> 122 50<143.359 208.477 380.359 445.477> 352 72<158.277 246 395.277 483>
LayerCount: 2
Fore
SplineSet
424 246 m 1
 424 114 337 33 206 33 c 3
 101 33 2 75 2 170 c 3
 2 215 31 255 84 255 c 3
 137 255 172 221 172 177 c 3
 172 147 153 123 138 108 c 1
 154 99 177 94 203 94 c 3
 289 94 352 142 352 246 c 1
 424 246 l 1
87 140 m 3
 106 140 122 158 122 177 c 3
 122 196 106 212 87 212 c 3
 68 212 52 195 52 176 c 3
 52 157 68 140 87 140 c 3
  Spiro
    87 140 o
    104.503 145.36 o
    117.157 158.979 o
    122 177 o
    117.157 194.503 o
    104.503 207.157 o
    87 212 o
    69.497 206.899 o
    56.8426 193.762 o
    52 176 o
    56.8426 158.238 o
    69.497 145.101 o
    0 0 z
  EndSpiro
424 483 m 1
 424 351 337 270 206 270 c 3
 101 270 2 312 2 407 c 3
 2 452 31 492 84 492 c 3
 137 492 172 458 172 414 c 3
 172 384 153 360 138 345 c 1
 154 336 177 331 203 331 c 3
 289 331 352 379 352 483 c 1
 424 483 l 1
87 377 m 3
 106 377 122 395 122 414 c 3
 122 433 106 449 87 449 c 3
 68 449 52 432 52 413 c 3
 52 394 68 377 87 377 c 3
  Spiro
    87 377 o
    104.503 382.36 o
    117.157 395.979 o
    122 414 o
    117.157 431.503 o
    104.503 444.157 o
    87 449 o
    69.497 443.899 o
    56.8426 430.762 o
    52 413 o
    56.8426 395.238 o
    69.497 382.101 o
    0 0 z
  EndSpiro
EndSplineSet
EndChar

StartChar: uni0EB1
Encoding: 3761 3761 28
Width: 0
VWidth: 1063
Flags: W
HStem: 654 62<-427.261 -229.758> 838 46<-519.593 -453.896>
VStem: -575 50<767.777 832.903> -449 50<766.768 833.142> -146 72<794.283 874>
LayerCount: 2
Fore
SplineSet
-342 716 m 3
 -233 716 -146 761 -146 874 c 1
 -74 874 l 1
 -74 714 -210 654 -338 654 c 3
 -438 654 -575 697 -575 785 c 3
 -575 840 -542 884 -489 884 c 259
 -440 884 -399 848 -399 803 c 3
 -399 770 -409 745 -428 732 c 1
 -412 721 -379 716 -342 716 c 3
-449 800 m 3
 -449 819 -468 838 -487 838 c 3
 -506 838 -525 819 -525 800 c 3
 -525 781 -506 762 -487 762 c 3
 -468 762 -449 781 -449 800 c 3
EndSplineSet
EndChar

StartChar: uni0EB2
Encoding: 3762 3762 29
Width: 463
VWidth: 1063
Flags: W
HStem: 0 21G<285 361.733> 313 51<56.6224 122.459> 451 43<84.1402 121.047> 525 66<102.19 256.251>
VStem: 0 50<368.92 444.716> 128 50<368.75 445.636> 311 72<13.9343 471.973>
LayerCount: 2
Fore
SplineSet
178 405 m 3
 178 354 143 313 95 313 c 3
 36 313 0 358 0 431 c 3
 0 522 90 591 184 591 c 3
 303 591 384 507 384 405 c 2
 383 75 l 2
 383 52 354 0 354 0 c 1
 285 0 l 1
 292 12 311 53 311 76 c 2
 311 405 l 2
 311 471 256 525 186 525 c 3
 155 525 120 515 84 494 c 1
 137 494 178 466 178 405 c 3
89 364 m 259
 111 364 128 384 128 408 c 3
 128 431 111 451 89 451 c 3
 68 451 50 429 50 408 c 3
 50 385 68 364 89 364 c 259
EndSplineSet
EndChar

StartChar: uni0EB4
Encoding: 3764 3764 31
Width: 0
VWidth: 1063
Flags: W
HStem: 625 63<-559.78 -471.417 -350.491 -262.22> 837 65<-539.917 -282.083>
VStem: -669 72<719.317 797.946> -225 72<719.777 797.946>
LayerCount: 2
Fore
SplineSet
-470 657 m 3
 -470 637 -484 625 -503 625 c 3
 -552 625 -669 681 -669 757 c 3
 -669 851 -517 902 -411 902 c 3
 -305 902 -153 851 -153 757 c 3
 -153 681 -270 625 -319 625 c 3
 -338 625 -352 637 -352 657 c 3
 -352 675 -339 683 -325 688 c 0
 -283 698 -225 716 -225 757 c 3
 -225 820 -341 837 -411 837 c 3
 -481 837 -597 820 -597 757 c 3
 -597 716 -542 699 -497 688 c 0
 -484 686 -470 675 -470 657 c 3
EndSplineSet
EndChar

StartChar: uni0EB5
Encoding: 3765 3765 32
Width: 0
VWidth: 1063
Flags: W
HStem: 625 63<-559.78 -471.417 -350.583 -286.469> 632 93<-286 -108> 837 65<-539.917 -282.083>
VStem: -669 72<719.317 797.946> -225 72<719.79 797.946>
LayerCount: 2
Fore
SplineSet
-470 657 m 3xb8
 -470 637 -484 625 -503 625 c 3xb8
 -552 625 -669 681 -669 757 c 3
 -669 851 -517 902 -411 902 c 3
 -305 902 -153 851 -153 757 c 3
 -153 737 -160 718 -173 700 c 1
 -154 706 -122 725 -108 725 c 3
 -94 725 -83 708 -83 694 c 3
 -83 681 -88 673 -98 668 c 0
 -142 645 -213 632 -286 632 c 1x78
 -296 628 -306 625 -319 625 c 3
 -338 625 -352 637 -352 657 c 3
 -352 675 -340 683 -326 688 c 0
 -284 698 -225 716 -225 757 c 3
 -225 820 -341 837 -411 837 c 3
 -481 837 -597 820 -597 757 c 3
 -597 716 -542 699 -497 688 c 0
 -484 686 -470 675 -470 657 c 3xb8
EndSplineSet
EndChar

StartChar: uni0EB6
Encoding: 3766 3766 33
Width: 0
VWidth: 1063
Flags: W
HStem: 625 63<-559.78 -471.417 -350.491 -262.22> 696 92<-443.97 -378.03> 837 65<-539.917 -282.083>
VStem: -669 72<719.317 797.946> -450 78<700.776 783.224> -225 72<719.777 797.946>
CounterMasks: 1 1c
LayerCount: 2
Fore
SplineSet
-470 657 m 3
 -470 637 -484 625 -503 625 c 3
 -552 625 -669 681 -669 757 c 3
 -669 851 -517 902 -411 902 c 3
 -305 902 -153 851 -153 757 c 3
 -153 681 -270 625 -319 625 c 3
 -338 625 -352 637 -352 657 c 3
 -352 675 -339 683 -325 688 c 0
 -283 698 -225 716 -225 757 c 3
 -225 820 -341 837 -411 837 c 3
 -481 837 -597 820 -597 757 c 3
 -597 716 -542 699 -497 688 c 0
 -484 686 -470 675 -470 657 c 3
-411 788 m 3
 -389 788 -372 766 -372 742 c 259
 -372 718 -389 696 -411 696 c 259
 -433 696 -450 718 -450 742 c 3
 -450 766 -433 788 -411 788 c 3
EndSplineSet
EndChar

StartChar: uni0EB7
Encoding: 3767 3767 34
Width: 0
VWidth: 1063
Flags: W
HStem: 625 63<-559.78 -471.417 -350.583 -286.469> 632 93<-286 -108> 696 92<-443.97 -378.03> 837 65<-539.917 -282.083>
VStem: -669 72<719.317 797.946> -450 78<700.776 783.224> -225 72<719.79 797.946>
CounterMasks: 1 0e
LayerCount: 2
Fore
SplineSet
-411 788 m 3x3e
 -389 788 -372 766 -372 742 c 259
 -372 718 -389 696 -411 696 c 259
 -433 696 -450 718 -450 742 c 3
 -450 766 -433 788 -411 788 c 3x3e
-470 657 m 3
 -470 637 -484 625 -503 625 c 3x9e
 -552 625 -669 681 -669 757 c 3
 -669 851 -517 902 -411 902 c 3
 -305 902 -153 851 -153 757 c 3
 -153 737 -160 718 -173 700 c 1
 -154 706 -122 725 -108 725 c 3
 -94 725 -83 708 -83 694 c 3
 -83 681 -88 673 -98 668 c 0
 -142 645 -213 632 -286 632 c 1x5e
 -296 628 -306 625 -319 625 c 3
 -338 625 -352 637 -352 657 c 3
 -352 675 -340 683 -326 688 c 0
 -284 698 -225 716 -225 757 c 3
 -225 820 -341 837 -411 837 c 3
 -481 837 -597 820 -597 757 c 3
 -597 716 -542 699 -497 688 c 0x9e
 -484 686 -470 675 -470 657 c 3
EndSplineSet
EndChar

StartChar: uni0EB8
Encoding: 3768 3768 35
Width: 0
VWidth: 1063
Flags: W
HStem: -181 38<-343.366 -304.196> -98 28<-343.362 -294.152>
VStem: -395 50<-142.046 -98.4836> -304 72<-302.288 -259> -292 60<-142.426 -99.7989>
LayerCount: 2
Fore
SplineSet
-292 -120 m 3xe8
 -292 -133 -306 -143 -319 -143 c 3
 -331 -143 -345 -131 -345 -119 c 259
 -345 -105 -331 -98 -319 -98 c 3
 -302 -98 -292 -107 -292 -120 c 3xe8
-395 -126 m 3
 -395 -158 -362 -181 -320 -181 c 3
 -315 -181 -308 -180 -304 -178 c 1
 -304 -259 l 2
 -304 -268 -332 -313 -332 -313 c 1
 -252 -313 l 1
 -252 -313 -232 -275 -232 -259 c 2xf0
 -232 -148 l 2
 -232 -91 -256 -70 -319 -70 c 3
 -365 -70 -395 -88 -395 -126 c 3
EndSplineSet
EndChar

StartChar: uni0EB9
Encoding: 3769 3769 36
Width: 0
VWidth: 1063
Flags: W
HStem: -305 54<-323.107 -284.106> -172 35<-431.498 -397.112> -96 26<-429.855 -387.185>
VStem: -482 50<-136.6 -96.0942> -397 72<-249.299 -223> -385 60<-136.896 -96.1887> -283 72<-249.572 -219>
LayerCount: 2
Fore
SplineSet
-385 -116 m 259xf6
 -385 -128 -397 -137 -409 -137 c 3
 -422 -137 -432 -128 -432 -116 c 259
 -432 -105 -421 -96 -408 -96 c 3
 -396 -96 -385 -105 -385 -116 c 259xf6
-325 -141 m 2
 -325 -87 -345 -70 -410 -70 c 3
 -454 -70 -482 -90 -482 -123 c 3
 -482 -153 -450 -172 -410 -172 c 2
 -397 -172 l 1
 -397 -224 l 2
 -397 -272 -353 -305 -301 -305 c 3
 -238 -305 -211 -269 -211 -219 c 2
 -210 -75 l 1
 -283 -75 l 1
 -283 -219 l 2
 -283 -233 -289 -251 -301 -251 c 3
 -311 -251 -325 -235 -325 -223 c 2xfa
 -325 -141 l 2
EndSplineSet
EndChar

StartChar: uni0EBA
Encoding: 3770 3770 37
Width: 0
VWidth: 1063
Flags: W
HStem: -221 145<-178.5 -75.625>
VStem: -200 145<-199.875 -97>
LayerCount: 2
Fore
SplineSet
-127 -76 m 259
 -86 -76 -55 -107 -55 -148 c 3
 -55 -189 -86 -221 -127 -221 c 259
 -168 -221 -200 -189 -200 -148 c 3
 -200 -108 -167 -76 -127 -76 c 259
EndSplineSet
EndChar

StartChar: uni0EBB
Encoding: 3771 3771 38
Width: 0
VWidth: 1063
Flags: W
HStem: 618 52<-557.426 -489.027> 788 63<-461.995 -256.146>
VStem: -612 50<675.028 742.598> -484 50<674.61 743.298> -157 72<627 703.744>
LayerCount: 2
Fore
SplineSet
-523 618 m 3
 -576 618 -612 661 -612 717 c 3
 -612 809 -466 851 -363 851 c 3
 -211 851 -85 778 -85 627 c 1
 -157 627 l 1
 -157 743 -267 788 -368 788 c 3
 -419 788 -439 784 -464 774 c 1
 -448 758 -434 729 -434 699 c 3
 -434 659 -477 618 -523 618 c 3
-484 709 m 3
 -484 730 -502 748 -523 748 c 3
 -544 748 -562 730 -562 709 c 3
 -562 688 -544 670 -523 670 c 3
 -502 670 -484 688 -484 709 c 3
EndSplineSet
EndChar

StartChar: uni0EBC
Encoding: 3772 3772 39
Width: 0
VWidth: 1063
Flags: W
HStem: -259 52<-567.828 -496.594> -246 65<-353.581 -274.806> -125 65<-567.406 -497.192>
VStem: -623 50<-201.352 -130.577> -491 50<-201.922 -167> -232 51<-117.681 -82.3725>
LayerCount: 2
Fore
SplineSet
-623 -159 m 0xbc
 -623 -102 -583 -60 -530 -60 c 3
 -477 -60 -429 -84 -384 -131 c 0
 -353 -164 -328 -181 -309 -181 c 3
 -263 -181 -245 -88 -232 -47 c 1
 -181 -88 l 1
 -202 -156 -228 -246 -304 -246 c 3x7c
 -351 -246 -401 -213 -441 -167 c 1
 -441 -211 -485 -259 -530 -259 c 3
 -585 -259 -623 -221 -623 -159 c 0xbc
-532 -207 m 259xbc
 -510 -207 -491 -188 -491 -166 c 3
 -491 -144 -510 -125 -532 -125 c 3
 -554 -125 -573 -144 -573 -166 c 3
 -573 -188 -554 -207 -532 -207 c 259xbc
EndSplineSet
EndChar

StartChar: uni0EBD
Encoding: 3773 3773 40
Width: 612
VWidth: 1063
Flags: W
HStem: -195 64<113.071 376.724> -30 52<100.433 206> 55 43<156.102 217.589> 142 53<121.005 217.014> 448 69<264.914 383.771> 525 66<72.0301 180.478>
VStem: -3 72<455.435 521.04> 6 72<-101.332 -42.4977 43.9744 106.369> 218 50<98.6497 140.463> 464 72<-47.4218 182.877>
LayerCount: 2
Fore
SplineSet
218 120 m 3xfcc0
 218 135 204 142 187 142 c 3
 170 142 156 135 156 121 c 3
 156 102 173 98 192 98 c 3
 205 98 218 107 218 120 c 3xfcc0
112 525 m 3
 88 525 69 517 69 491 c 3xfec0
 69 474 71 462 77 459 c 0
 188 397 338 374 436 298 c 0
 483 262 536 179 536 90 c 3
 536 -116 443 -195 249 -195 c 3
 118 -195 6 -181 6 -66 c 3
 6 -38 18 -21 53 0 c 1
 31 4 6 35 6 76 c 3
 6 141 86 195 158 195 c 3
 221 195 268 166 268 119 c 3
 268 81 234 55 190 55 c 3
 145 55 117 73 110 113 c 1
 96 107 78 90 78 83 c 3
 78 43 123 22 206 22 c 1
 214 15 l 1
 214 -8 l 2
 214 -23 183 -30 121 -30 c 1
 95 -43 78 -57 78 -72 c 3xfdc0
 78 -107 145 -131 250 -131 c 3
 406 -131 464 -75 464 65 c 3
 464 154 437 221 382 258 c 0
 313 305 143 347 53 394 c 0
 28 407 -3 428 -3 476 c 3xfec0
 -3 544 50 591 118 591 c 3
 192 591 288 517 318 517 c 3
 387 517 419 572 443 623 c 1
 513 603 l 1
 461 514 428 448 318 448 c 3
 258 448 172 525 112 525 c 3
EndSplineSet
EndChar

StartChar: uni0EC0
Encoding: 3776 3776 41
Width: 303
VWidth: 1063
Flags: W
HStem: -8 49<86.5361 166.69> 133 51<91.5144 167.6> 510 66<161 227> 530 61<106.914 225.761>
VStem: 19 72<176 517.652> 19 60<50.909 124.984> 175 50<49.4754 125.517>
LayerCount: 2
Back
SplineSet
243 86 m 3
 243 25 196 -8 133 -8 c 3
 68 -8 19 35 19 107 c 2
 19 440 l 2
 19 529 54 591 147 591 c 27
 184 591 200 584 227 576 c 1
 227 510 l 1
 201 518 177 530 145 530 c 3
 102 530 90 489 90 440 c 2
 90 176 l 1
 107 182 123 184 139 184 c 3
 200 184 243 148 243 86 c 3
145 41 m 3
 169 41 191 62 191 86 c 3
 191 113 170 133 145 133 c 3
 119 133 97 112 97 86 c 3
 97 61 121 41 145 41 c 3
EndSplineSet
Fore
SplineSet
225 86 m 3xda
 225 25 178 -8 115 -8 c 3
 68 -8 19 35 19 107 c 2xd6
 19 440 l 2
 19 529 56 591 147 591 c 3xda
 179 591 200 584 227 576 c 1
 227 510 l 1xea
 201 518 177 530 145 530 c 3
 103 530 91 489 91 440 c 2
 91 176 l 1
 99 182 115 184 121 184 c 3
 182 184 225 148 225 86 c 3xda
127 41 m 3
 153 41 175 62 175 86 c 3
 175 113 154 133 127 133 c 3
 101 133 79 112 79 86 c 3
 79 61 103 41 127 41 c 3
EndSplineSet
EndChar

StartChar: uni0EC2
Encoding: 3778 3778 43
Width: 408
VWidth: 1063
Flags: W
HStem: -8 55<162.793 236.702> 126 46<170.237 235.393> 715 69<169.695 290.356> 864 64<-33.083 16.0302>
VStem: -106 72<814.383 863.962> 98 72<165 491.492> 98 60<51.6143 120.464> 241 50<52.3541 120.076>
DStem2: 64 889 18 841 0.781252 -0.624215<-51.3548 190.029> 126 516 250 529 0.861631 0.507536<8.64986 84.7231>
LayerCount: 2
Fore
SplineSet
196 172 m 3xfd
 248 172 291 136 291 84 c 3
 291 23 259 -8 194 -8 c 3
 142 -8 98 17 98 77 c 2xfb
 98 449 l 2
 98 476 110 507 126 516 c 2
 199 559 l 1
 175 564 150 575 126 594 c 0
 51 652 -24 711 -82 785 c 0
 -98 806 -106 824 -106 838 c 3
 -106 898 -78 928 -22 928 c 3
 2 928 30 915 64 889 c 0
 96 864 163 808 187 794 c 0
 197 788 210 784 224 784 c 3
 251 784 268 795 290 800 c 1
 294 728 l 1
 270 723 242 715 224 715 c 3
 202 715 180 722 159 736 c 0
 109 770 63 805 18 841 c 0
 -2 857 -16 864 -22 864 c 3
 -26 864 -34 859 -34 849 c 0
 -34 845 -33 829 -27 822 c 0
 34 755 99 697 171 641 c 0
 185 630 213 619 252 607 c 0
 279 599 293 588 293 576 c 3
 293 550 282 550 250 529 c 2
 202 499 l 2
 178 483 170 467 170 449 c 2
 170 165 l 1
 174 170 186 172 196 172 c 3xfd
199 47 m 3
 222 47 241 63 241 86 c 3
 241 107 222 126 199 126 c 3
 179 126 158 107 158 86 c 3
 158 64 176 47 199 47 c 3
EndSplineSet
EndChar

StartChar: uni0EC3
Encoding: 3779 3779 44
Width: 280
VWidth: 1057
Flags: W
HStem: -8 52<99.6268 159.449> 118 48<108.258 159.449> 555 32<74.7188 84.707> 665 57<27.0062 117.866> 908 63<48.0619 191.158>
VStem: -58 60<746.759 865.492> 36 72<163 494.941> 36 60<47.9615 115.253> 121 60<727.771 789.23> 163 50<46.5383 115.524> 235 60<709.247 862.807>
LayerCount: 2
Fore
SplineSet
163 81 m 3xfd60
 163 100 148 118 130 118 c 3
 111 118 96 100 96 81 c 3
 96 62 111 44 130 44 c 3
 148 44 163 62 163 81 c 3xfd60
128 166 m 3
 175 166 213 125 213 78 c 3
 213 31 175 -8 128 -8 c 3
 62 -8 36 49 36 93 c 2xfd60
 36 413 l 2
 36 474 78 546 134 576 c 1
 113 565 94 558 78 555 c 1
 63 587 l 1
 183 659 235 699 235 796 c 3
 235 861 188 908 123 908 c 3
 61 908 2 871 2 802 c 3
 2 760 35 722 76 722 c 3
 98 722 121 735 121 755 c 3
 121 778 101 792 82 796 c 1
 116 841 l 1
 153 826 181 803 181 761 c 3
 181 697 133 665 66 665 c 3
 -6 665 -58 735 -58 813 c 3
 -58 904 14 971 104 971 c 3
 219 971 295 911 295 800 c 3
 295 731 272 686 227 641 c 1
 234 644 241 647 250 650 c 1
 268 621 l 1
 203 575 161 543 141 524 c 0
 117 501 108 471 108 433 c 2
 108 163 l 1xfea0
 113 164 120 166 128 166 c 3
EndSplineSet
EndChar

StartChar: uni0EC4
Encoding: 3780 3780 45
Width: 346
VWidth: 1063
Flags: W
HStem: -8 53<145.069 214.742> 124 50<152.245 212.955> 608 63<143.43 224.212>
VStem: 41 66<635.032 766.59> 80 72<166 470.571> 80 60<49.8208 120.283> 219 50<49.8654 119.205> 225 60<565.335 607.917>
DStem2: 112 507 164 465 0.83043 0.557124<-8.5827 142.192>
LayerCount: 2
Fore
SplineSet
177 45 m 3xe6
 201 45 219 60 219 83 c 3
 219 104 201 124 181 124 c 3
 159 124 140 111 140 88 c 3
 140 65 155 45 177 45 c 3xe6
179 -8 m 3
 120 -8 80 19 80 77 c 2xe6
 80 430 l 2xe8
 80 467 90 492 112 507 c 2
 158 538 l 2
 184 555 225 570 225 595 c 3
 225 604 220 608 206 608 c 3
 159 608 99 560 73 519 c 1
 3 524 l 1
 26 575 41 596 41 639 c 3
 41 716 5 843 -46 894 c 1
 -6 963 l 1
 52 886 107 759 107 652 c 3
 107 646 107 640 107 634 c 1xf1
 132 651 172 671 210 671 c 3
 252 671 285 633 285 593 c 3
 285 555 261 530 243 518 c 2
 164 465 l 2
 152 457 152 452 152 430 c 2
 152 166 l 1xe9
 157 171 169 174 180 174 c 3
 228 174 269 133 269 84 c 3
 269 23 239 -8 179 -8 c 3
EndSplineSet
EndChar

StartChar: uni0EC6
Encoding: 3782 3782 46
Width: 597
VWidth: 1063
Flags: W
HStem: -205 66<164.15 345.03> 264 55<147.287 211.699> 393 44<145.859 212.543> 461 64<219.318 294.374> 525 66<94.5279 174.477 336.134 417.629>
VStem: -1 72<353.477 501.201> 92 50<352.289 388.878> 216 50<322.522 389.578> 425 72<-78.8633 521.928>
LayerCount: 2
Back
SplineSet
144 304 m 3xef80
 61 304 -1 374 -1 456 c 3
 -1 530 58 591 132 591 c 3xef80
 181 591 235 525 252 525 c 3xd780
 285 525 330 591 379 591 c 3xcf80
 461 591 497 545 497 467 c 2
 497 -42 l 2
 497 -146 362 -205 247 -205 c 3
 161 -205 103 -165 62 -119 c 1
 105 -42 l 1
 139 -97 159 -139 247 -139 c 3
 319 -139 436 -100 436 -37 c 2
 436 437 l 2
 436 509 426 527 380 527 c 3
 352 527 299 461 253 461 c 3xd780
 193 461 177 525 130 525 c 3
 80 525 48 492 48 439 c 3
 48 425 62 399 69 392 c 1
 69 395 69 398 69 401 c 3
 69 443 101 477 144 477 c 3
 190 477 226 437 226 391 c 3
 226 347 191 304 144 304 c 3xef80
185 397 m 3
 185 419 169 433 147 433 c 3
 125 433 111 414 111 395 c 3
 111 373 128 360 150 360 c 3
 171 360 185 377 185 397 c 3
EndSplineSet
Fore
SplineSet
175 264 m 3xef80
 61 264 -1 334 -1 436 c 3
 -1 530 58 591 132 591 c 3xef80
 181 591 235 525 252 525 c 3xf780
 285 525 330 591 379 591 c 3xef80
 461 591 497 545 497 467 c 2
 497 -42 l 2
 497 -146 362 -205 247 -205 c 3
 161 -205 103 -165 62 -119 c 1
 105 -42 l 1
 139 -97 159 -139 247 -139 c 3
 308 -139 425 -100 425 -37 c 2
 425 437 l 2
 425 509 415 527 380 527 c 3
 352 527 299 461 253 461 c 3xf780
 193 461 177 525 130 525 c 3
 103 525 71 492 71 419 c 3
 71 385 85 359 92 352 c 1
 92 355 92 358 92 361 c 3
 92 403 124 437 175 437 c 3
 230 437 266 397 266 351 c 3
 266 307 231 264 175 264 c 3xef80
216 356 m 3
 216 376 199 393 179 393 c 3
 159 393 142 376 142 356 c 3
 142 336 159 319 179 319 c 3
 199 319 216 336 216 356 c 3
EndSplineSet
EndChar

StartChar: uni0EC8
Encoding: 3784 3784 47
Width: 0
VWidth: 1063
Flags: W
HStem: 641 200<-261 -189>
VStem: -261 72<641 841>
LayerCount: 2
Fore
SplineSet
-189 641 m 1
 -261 641 l 1
 -261 841 l 1
 -189 841 l 1
 -189 641 l 1
EndSplineSet
EndChar

StartChar: uni0EC9
Encoding: 3785 3785 48
Width: 0
VWidth: 1063
Flags: W
HStem: 656 56<-370 -239.301> 798 48<-474.048 -421.91>
VStem: -525 50<757.074 797.246> -420 72<733.764 796.461>
LayerCount: 2
Fore
SplineSet
-438 846 m 3
 -391 846 -348 811 -348 766 c 3
 -348 748 -355 730 -370 712 c 1
 -231 712 -176 763 -162 811 c 2
 -148 859 l 1
 -127 840 -105 822 -83 803 c 1
 -97 765 l 2
 -114 717 -214 656 -402 656 c 2
 -548 656 l 1
 -548 692 -511 703 -467 720 c 0
 -449 727 -420 743 -420 767 c 3
 -420 785 -430 798 -449 798 c 3
 -467 798 -475 787 -475 766 c 1
 -486 760 -505 754 -524 748 c 1
 -524 748 -525 759 -525 764 c 3
 -525 804 -491 846 -438 846 c 3
EndSplineSet
EndChar

StartChar: uni0ECA
Encoding: 3786 3786 49
Width: 0
VWidth: 1063
Flags: W
HStem: 765 64<-372.244 -304.017 -215.127 -145.07>
VStem: -447 72<694.875 760.624> -142 72<733 759.706> -46 72<738.384 822.962>
LayerCount: 2
Fore
SplineSet
-10 825 m 3
 15 825 26 810 26 791 c 27
 26 699 -55 632 -148 632 c 3
 -165 632 -180 651 -182 669 c 0
 -182 678 -180 686 -172 689 c 0
 -159 694 -142 715 -142 733 c 3
 -142 753 -168 766 -191 766 c 3
 -199 766 -211 752 -229 722 c 2
 -259 672 l 1
 -289 721 l 2
 -307 750 -319 765 -327 765 c 3
 -353 765 -375 756 -375 734 c 3
 -375 711 -360 697 -345 689 c 0
 -335 684 -330 674 -330 662 c 3
 -330 646 -345 629 -362 629 c 3
 -368 629 -374 630 -380 634 c 0
 -426 665 -447 678 -447 734 c 3
 -447 794 -399 829 -328 829 c 3
 -306 829 -276 797 -260 781 c 1
 -243 803 -217 830 -187 830 c 3
 -126 830 -70 787 -70 733 c 1
 -54 752 -46 790 -46 801 c 3
 -46 815 -30 825 -10 825 c 3
EndSplineSet
EndChar

StartChar: uni0ECB
Encoding: 3787 3787 50
Width: 0
VWidth: 1063
Flags: W
HStem: 734 76<-302 -221 -149 -68>
VStem: -221 72<653 734 810 892>
LayerCount: 2
Fore
SplineSet
-149 653 m 1
 -221 653 l 1
 -221 734 l 1
 -302 734 l 1
 -302 810 l 1
 -221 810 l 1
 -221 892 l 1
 -149 892 l 1
 -149 810 l 1
 -68 810 l 1
 -68 734 l 1
 -149 734 l 1
 -149 653 l 1
EndSplineSet
EndChar

StartChar: uni0ECC
Encoding: 3788 3788 51
Width: 0
VWidth: 1063
Flags: W
HStem: 635 38<-262.389 -198.056>
VStem: -316 50<675.621 736.149> -194 50<675.836 736.296>
DStem2: -62 897 2 869 0.242536 0.970143<-63.901 15.937>
LayerCount: 2
Fore
SplineSet
-230 673 m 3
 -210 673 -194 688 -194 706 c 3
 -194 724 -210 739 -230 739 c 3
 -250 739 -266 724 -266 706 c 3
 -266 688 -250 673 -230 673 c 3
-237 635 m 3
 -276 635 -316 665 -316 705 c 3
 -316 761 -264 791 -214 797 c 0
 -133 806 -77 838 -62 897 c 2
 -50 945 l 1
 -32 925 -12 908 7 889 c 1
 2 869 l 2
 -14 804 -86 769 -168 754 c 1
 -153 748 -144 733 -144 705 c 3
 -144 666 -190 635 -237 635 c 3
EndSplineSet
EndChar

StartChar: uni0ECD
Encoding: 3789 3789 52
Width: 0
VWidth: 1063
Flags: W
HStem: 670 58<-336.115 -262.498> 810 58<-336.115 -262.591>
VStem: -402 60<733.892 804.308> -258 60<733.553 804.648>
LayerCount: 2
Fore
SplineSet
-402 769 m 3
 -402 826 -357 868 -300 868 c 3
 -244 868 -198 826 -198 769 c 3
 -198 713 -244 670 -300 670 c 259
 -357 670 -402 713 -402 769 c 3
-300 810 m 3
 -323 810 -342 792 -342 769 c 259
 -342 746 -323 728 -300 728 c 3
 -275 728 -258 745 -258 769 c 259
 -258 793 -276 810 -300 810 c 3
EndSplineSet
EndChar

StartChar: uni0ED0
Encoding: 3792 3792 53
Width: 646
VWidth: 1063
Flags: W
HStem: -8 68<187.314 378.173> 522 69<193.877 385.201>
VStem: 22 72<163.278 412.099> 475 72<168.241 427.237>
LayerCount: 2
Fore
SplineSet
285 591 m 3
 467 591 547 486 547 292 c 3
 547 113 453 -8 285 -8 c 3
 110 -8 22 100 22 292 c 3
 22 480 109 591 285 591 c 3
285 60 m 3
 415 60 475 153 475 292 c 3
 475 444 425 522 285 522 c 3
 157 522 94 434 94 292 c 3
 94 143 151 60 285 60 c 3
EndSplineSet
EndChar

StartChar: uni0ED1
Encoding: 3793 3793 54
Width: 657
VWidth: 1063
Flags: W
HStem: -8 21G<181 241> 165 78<169.323 293.627> 308 39<228.266 294.181> 532 59<168.635 375.991>
VStem: 11 72<275.266 446.867> 175 50<246.111 304.876> 297 50<246.412 306.086> 486 72<212.478 422.47>
LayerCount: 2
Fore
SplineSet
200 219 m 1
 182 233 175 249 175 273 c 3
 175 320 216 347 261 347 c 3
 306 347 347 321 347 276 c 3
 347 209 280 165 226 165 c 3
 93 165 11 232 11 362 c 3
 11 516 116 591 269 591 c 3
 433 591 558 494 558 328 c 3
 558 231 526 166 484 124 c 0
 420 56 293 -8 189 -8 c 3
 173 -8 154 -7 142 -3 c 1
 142 5 176 25 181 27 c 0
 271 68 356 97 426 162 c 0
 461 195 486 241 486 305 c 3
 486 456 412 532 261 532 c 3
 151 532 83 465 83 352 c 3
 83 273 129 233 200 219 c 1
260 243 m 3
 277 243 297 257 297 276 c 3
 297 298 282 308 261 308 c 3
 242 308 225 295 225 275 c 3
 225 257 243 243 260 243 c 3
EndSplineSet
EndChar

StartChar: uni0ED2
Encoding: 3794 3794 55
Width: 650
VWidth: 1063
Flags: W
HStem: -8 64<192.116 390.53> 172 54<385.951 468.402>
VStem: 11 72<159.529 347.903> 335 50<120.846 168.745> 469 50<122.588 169.183>
LayerCount: 2
Back
SplineSet
393 78 m 1
 360 91 335 100 335 144 c 3
 335 194 377 226 436 226 c 3
 477 226 519 194 519 152 c 3
 519 50 404 -8 292 -8 c 3
 115 -8 11 94 11 269 c 3
 11 366 67 418 130 469 c 0
 240 559 385 632 448 691 c 0
 464 706 478 725 491 746 c 1
 499 743 503 719 503 706 c 3
 503 664 492 658 467 633 c 0
 421 587 291 508 170 414 c 0
 129 382 88 337 88 266 c 3
 88 128 167 56 307 56 c 3
 347 56 363 62 393 78 c 1
428 118 m 3
 444 118 457 130 457 147 c 3
 457 161 442 172 428 172 c 3
 412 172 399 160 399 146 c 3
 399 129 412 118 428 118 c 3
EndSplineSet
Fore
SplineSet
393 78 m 1
 360 91 335 100 335 144 c 3
 335 194 377 226 436 226 c 3
 477 226 519 194 519 152 c 3
 519 50 404 -8 292 -8 c 3
 115 -8 11 94 11 269 c 3
 11 366 67 418 130 469 c 0
 240 559 385 632 448 691 c 0
 464 706 478 725 491 746 c 1
 499 743 503 719 503 706 c 3
 503 664 492 658 467 633 c 0
 421 587 286 508 165 414 c 0
 124 382 83 337 83 266 c 3
 83 128 162 56 307 56 c 3
 347 56 363 62 393 78 c 1
427 118 m 3
 456 118 469 130 469 147 c 3
 469 161 454 172 427 172 c 3
 398 172 385 160 385 146 c 3
 385 129 398 118 427 118 c 3
EndSplineSet
EndChar

StartChar: uni0ED3
Encoding: 3795 3795 56
Width: 665
VWidth: 1063
Flags: W
HStem: -8 66<326.199 441.103> -8 54<54.6351 114.129> 99 50<53.7422 113.923> 428 66<187.445 221.084> 735 71<203 289.556>
VStem: 3 50<47.8491 97.4498> 102 72<215.796 424.241> 151 72<722.008 761> 231 72<214.52 424.381> 486 72<124.953 480.187>
LayerCount: 2
Fore
SplineSet
115 73 m 3x7cc0
 115 87 97 99 82 99 c 3
 68 99 53 89 53 74 c 3
 53 59 67 46 85 46 c 3
 100 46 115 58 115 73 c 3x7cc0
202 428 m 3
 181 428 174 336 174 298 c 3x3ec0
 174 260 191 225 204 198 c 1
 217 236 231 287 231 331 c 3
 231 364 226 428 202 428 c 3
522 634 m 3
 522 614 492 607 463 607 c 1
 463 618 460 625 455 628 c 0
 394 664 318 704 264 724 c 0
 247 730 235 735 230 735 c 3
 227 735 223 735 223 734 c 3
 223 732 235 726 239 724 c 0
 331 678 465 610 513 536 c 0
 554 472 558 385 558 285 c 3
 558 106 509 -8 383 -8 c 3xbdc0
 324 -8 248 42 212 83 c 1
 187 41 147 -8 95 -8 c 3
 45 -8 3 24 3 71 c 3
 3 116 42 149 90 149 c 3
 114 149 144 138 154 119 c 1
 166 138 l 1
 131 178 102 230 102 305 c 3x7ec0
 102 388 129 494 205 494 c 3
 274 494 303 400 303 332 c 3
 303 252 277 186 249 140 c 1
 279 100 349 58 403 58 c 3
 467 58 486 194 486 280 c 3
 486 389 482 450 454 503 c 0
 417 572 296 622 208 671 c 0
 185 684 151 714 151 745 c 3xbdc0
 151 777 186 806 220 806 c 3
 253 806 268 797 285 788 c 0
 356 751 428 715 496 675 c 0
 505 669 522 650 522 634 c 3
EndSplineSet
EndChar

StartChar: uni0ED4
Encoding: 3796 3796 57
Width: 695
VWidth: 1063
Flags: W
HStem: -8 60<141.942 242.073 416.109 500.801> 89 58<413.12 501.252> 171 44<415.07 495.523> 270 53<414.017 495.928>
VStem: 18 72<131.893 395.925> 280 72<127.318 224.066> 497 50<217.799 265.969> 502 72<48.6947 87.7667> 510 52<628.13 700.516>
DStem2: 194 530 191 468 0.970415 0.241443<-80.0246 306.587>
LayerCount: 2
Fore
SplineSet
370 127 m 1xfe
 396 137 439 147 472 147 c 3
 530 147 574 120 574 66 c 3xfd
 574 12 523 -8 466 -8 c 3
 420 -8 362 25 336 51 c 1
 283 28 223 -8 168 -8 c 3
 52 -8 18 145 18 270 c 0
 18 446 58 496 194 530 c 2
 403 582 l 2
 456 596 510 621 510 689 c 3
 510 700 508 714 503 729 c 1
 530 714 562 687 562 651 c 3xfc80
 562 580 500 551 430 534 c 0
 337 510 268 493 191 468 c 0
 115 440 90 377 90 270 c 3
 90 190 115 52 182 52 c 3
 201 52 267 86 299 100 c 1
 290 115 280 146 280 172 c 3
 280 272 347 323 446 323 c 3
 490 323 547 299 547 247 c 3
 547 198 500 171 452 171 c 3
 400 171 383 189 363 226 c 1
 356 206 352 188 352 173 c 3
 352 154 358 138 370 127 c 1xfe
497 245 m 3xfe
 497 256 483 270 454 270 c 3
 431 270 413 261 413 245 c 3
 413 228 431 215 459 215 c 3
 479 215 497 226 497 245 c 3xfe
467 46 m 3
 485 46 502 57 502 69 c 3xfd
 502 83 490 89 470 89 c 3
 451 89 432 87 412 79 c 1
 424 63 441 46 467 46 c 3
EndSplineSet
EndChar

StartChar: uni0ED5
Encoding: 3797 3797 58
Width: 717
VWidth: 1063
Flags: W
HStem: -8 60<141.942 242.073 416.109 500.801> 89 58<413.12 501.252> 171 44<415.07 495.523> 270 53<414.017 495.928> 613 27<241.521 316.862>
VStem: 18 72<131.893 395.925> 191 44<560.975 608.99> 280 72<127.318 224.066> 324 45<573.086 608.858> 497 50<217.799 265.969> 502 72<48.6947 87.7667> 510 52<628.13 700.516>
DStem2: 194 530 191 468 0.970415 0.241443<-80.0246 32.9848 179.234 306.587>
LayerCount: 2
Back
SplineSet
370 127 m 1xfe
 396 137 439 147 472 147 c 3
 530 147 574 120 574 66 c 3xfd
 574 12 523 -8 466 -8 c 3
 420 -8 362 25 336 51 c 1
 283 28 223 -8 168 -8 c 3
 52 -8 18 145 18 270 c 0
 18 446 58 496 194 530 c 2
 403 582 l 2
 456 596 510 621 510 689 c 3
 510 700 508 714 503 729 c 1
 530 714 562 687 562 651 c 3xfc80
 562 580 500 551 430 534 c 0
 337 510 268 493 191 468 c 0
 115 440 90 377 90 270 c 3
 90 190 115 52 182 52 c 3
 201 52 267 86 299 100 c 1
 290 115 280 146 280 172 c 3
 280 272 347 323 446 323 c 3
 490 323 547 299 547 247 c 3
 547 198 500 171 452 171 c 3
 400 171 383 189 363 226 c 1
 356 206 352 188 352 173 c 3
 352 154 358 138 370 127 c 1xfe
497 245 m 3xfe
 497 256 483 270 454 270 c 3
 431 270 413 261 413 245 c 3
 413 228 431 215 459 215 c 3
 479 215 497 226 497 245 c 3xfe
467 46 m 3
 485 46 502 57 502 69 c 3xfd
 502 83 490 89 470 89 c 3
 451 89 432 87 412 79 c 1
 424 63 441 46 467 46 c 3
280 640 m 259
 320 640 369 620 369 583 c 259
 369 546 320 526 280 526 c 259
 240 526 191 546 191 583 c 259
 191 620 240 640 280 640 c 259
324 585 m 259
 324 603 300 613 280 613 c 3
 260 613 235 604 235 585 c 259
 235 566 260 557 280 557 c 3
 300 557 324 567 324 585 c 259
EndSplineSet
Fore
SplineSet
324 585 m 3xfe80
 324 603 300 613 280 613 c 3
 260 613 235 604 235 585 c 3
 235 566 260 557 280 557 c 3xff
 300 557 324 567 324 585 c 3xfe80
280 640 m 3
 320 640 369 620 369 583 c 3
 369 580 369 576 368 573 c 1
 403 582 l 2
 456 596 510 621 510 689 c 3
 510 700 508 714 503 729 c 1
 530 714 562 687 562 651 c 3xfe90
 562 580 500 551 430 534 c 0
 337 510 268 493 191 468 c 0
 115 440 90 377 90 270 c 3
 90 190 115 52 182 52 c 3
 201 52 267 86 299 100 c 1
 290 115 280 146 280 172 c 3
 280 272 347 323 446 323 c 3
 490 323 547 299 547 247 c 3xff40
 547 198 500 171 452 171 c 3
 400 171 383 189 363 226 c 1
 356 206 352 188 352 173 c 3
 352 154 358 138 370 127 c 1
 396 137 439 147 472 147 c 3
 530 147 574 120 574 66 c 3xff20
 574 12 523 -8 466 -8 c 3
 420 -8 362 25 336 51 c 1
 283 28 223 -8 168 -8 c 3
 52 -8 18 145 18 270 c 3
 18 446 58 496 194 530 c 2
 226 538 l 1
 206 548 191 563 191 583 c 3
 191 620 240 640 280 640 c 3
467 46 m 3
 485 46 502 57 502 69 c 3xfe20
 502 83 490 89 470 89 c 3
 451 89 432 87 412 79 c 1
 424 63 441 46 467 46 c 3
497 245 m 3xfe40
 497 256 483 270 454 270 c 3
 431 270 413 261 413 245 c 3
 413 228 431 215 459 215 c 3
 479 215 497 226 497 245 c 3xfe40
EndSplineSet
EndChar

StartChar: uni0ED6
Encoding: 3798 3798 59
Width: 654
VWidth: 1063
Flags: W
HStem: -8 58<129.822 228.851 340.235 425.102> 223 59<262.149 289.687> 367 62<124.188 184.627> 466 54<126.11 184.963> 585 21G<460 470.5> 710 68<186 273.461>
VStem: 10 72<116.218 386.07> 133 72<698.582 738> 185 50<430.557 464.693> 202 60<156.668 222.849> 290 60<156.589 222.831> 469 72<118.416 464.592>
DStem2: 267 760 246 700 0.896267 -0.443515<-25.1525 236.993>
LayerCount: 2
Back
SplineSet
274 156 m 1xfce0
 279 171 278 198 282 214 c 1
 282 220 280 223 273 223 c 3
 269 223 267 215 267 205 c 3
 267 187 271 172 274 156 c 1xfce0
154 429 m 3
 165 429 175 436 175 447 c 3xfd60
 175 458 164 466 152 466 c 3
 144 466 134 458 134 445 c 3
 134 434 144 429 154 429 c 3
158 367 m 3
 125 367 117 370 98 389 c 1
 87 343 86 311 86 260 c 3
 86 173 104 50 176 50 c 3
 198 50 231 64 237 85 c 1
 221 108 202 143 202 181 c 3xfce0
 202 232 230 282 280 282 c 3
 321 282 350 248 350 208 c 3
 350 166 330 121 318 90 c 1
 338 74 356 52 393 52 c 3
 446 52 466 197 466 267 c 3
 466 398 462 428 435 485 c 0
 404 550 245 618 190 649 c 0
 166 663 133 687 133 720 c 3xfe60
 133 756 167 778 205 778 c 3
 232 778 238 771 267 760 c 0xfce0
 338 725 410 690 479 652 c 0
 488 646 506 628 506 613 c 3
 506 597 478 585 463 585 c 3
 457 585 451 586 446 587 c 1
 446 595 445 603 438 607 c 0
 397 632 289 684 246 700 c 0
 229 706 218 710 214 710 c 3
 213 710 211 710 211 709 c 3xfe60
 211 708 218 705 220 704 c 0
 310 659 454 583 496 515 c 0
 534 453 541 391 541 273 c 3
 541 153 508 -8 396 -8 c 3
 359 -8 308 18 282 42 c 1
 261 23 209 -8 170 -8 c 3
 56 -8 10 132 10 255 c 3
 10 373 41 520 153 520 c 3
 190 520 235 493 235 454 c 3
 235 403 200 367 158 367 c 3
EndSplineSet
Fore
SplineSet
274 156 m 1xfe70
 279 171 290 198 290 205 c 3
 290 220 280 223 273 223 c 3
 269 223 262 215 262 205 c 3
 262 187 271 172 274 156 c 1xfe70
154 429 m 3
 170 429 185 436 185 447 c 3xfeb0
 185 458 169 466 152 466 c 3
 139 466 124 458 124 445 c 3
 124 434 139 429 154 429 c 3
158 367 m 3
 125 367 117 370 98 389 c 1
 83 343 82 311 82 260 c 3
 82 173 100 50 176 50 c 3
 198 50 231 64 237 85 c 1
 221 108 202 143 202 181 c 3xfe70
 202 232 230 282 280 282 c 3
 321 282 350 248 350 208 c 3
 350 166 330 121 318 90 c 1
 338 74 356 52 393 52 c 3
 449 52 469 197 469 267 c 3
 469 398 465 428 438 485 c 0
 407 550 245 618 190 649 c 0
 166 663 133 687 133 720 c 3
 133 756 167 778 205 778 c 3
 232 778 238 771 267 760 c 0
 338 725 410 690 479 652 c 0
 488 646 506 628 506 613 c 3
 506 597 478 585 463 585 c 3
 457 585 451 586 446 587 c 1
 446 595 445 603 438 607 c 0
 397 632 289 684 246 700 c 0
 229 706 218 710 214 710 c 3
 211 710 205 710 205 709 c 3xff30
 205 708 218 702 220 701 c 0
 310 656 454 583 496 515 c 0
 534 453 541 391 541 273 c 3
 541 153 508 -8 396 -8 c 3
 359 -8 308 18 282 42 c 1
 261 23 209 -8 170 -8 c 3
 56 -8 10 132 10 255 c 3
 10 373 41 520 153 520 c 3
 190 520 235 493 235 454 c 3
 235 403 200 367 158 367 c 3
EndSplineSet
EndChar

StartChar: uni0ED7
Encoding: 3799 3799 60
Width: 612
VWidth: 1057
Flags: W
HStem: -8 52<52.1071 132.047> 107 55<53.6985 121.57> 411 57<61.7882 121.867> 531 60<58.0467 130.45 241.136 396.482>
VStem: 1 50<47.5227 103.123 477.386 530.343> 134 60<47.919 103.958 469.534 487.604> 425 72<-176 500.482>
LayerCount: 2
Back
SplineSet
328 591 m 3
 434 591 497 529 497 420 c 2
 497 -176 l 1
 428 -176 l 1
 428 410 l 2
 428 485 408 531 336 531 c 3
 275 531 191 513 191 422 c 2
 191 116 l 2
 191 39 168 -8 91 -8 c 3
 32 -8 1 18 1 75 c 3
 1 128 31 162 83 162 c 3
 96 162 109 160 122 156 c 1
 122 412 l 1
 122 412 112 411 107 411 c 3
 53 411 7 450 7 508 c 3
 7 556 45 591 97 591 c 3
 144 591 168 567 186 542 c 1
 215 576 264 591 328 591 c 3
105 468 m 259
 122 468 134 481 134 498 c 3
 134 519 114 534 93 534 c 3
 74 534 64 523 64 506 c 3
 64 485 85 468 105 468 c 259
123 76 m 3
 123 95 108 107 90 107 c 3
 72 107 58 91 58 74 c 3
 58 56 71 44 91 44 c 3
 109 44 123 59 123 76 c 3
EndSplineSet
Fore
SplineSet
328 591 m 3
 434 591 497 529 497 420 c 2
 497 -176 l 1
 425 -176 l 1
 425 410 l 2
 425 485 405 531 336 531 c 3
 278 531 194 513 194 422 c 2
 194 116 l 2
 194 39 168 -8 91 -8 c 3
 32 -8 1 18 1 75 c 3
 1 128 31 162 83 162 c 3
 96 162 109 160 122 156 c 1
 122 412 l 1
 122 412 112 411 107 411 c 3
 53 411 7 450 7 508 c 3
 7 556 45 591 97 591 c 3
 144 591 168 567 186 542 c 1
 215 576 264 591 328 591 c 3
101 468 m 259
 121 468 133 481 133 498 c 3
 133 519 113 534 89 534 c 3
 67 534 57 523 57 506 c 3
 57 485 78 468 101 468 c 259
134 76 m 3
 134 95 119 107 92 107 c 3
 65 107 51 91 51 74 c 3
 51 56 64 44 93 44 c 3
 120 44 134 59 134 76 c 3
EndSplineSet
EndChar

StartChar: uni0ED8
Encoding: 3800 3800 61
Width: 707
VWidth: 1063
Flags: W
HStem: -328 68<423.485 529.912> -270 63<103.313 208.621> -195 72<479 521.693> 223 65<125.666 209.833> 351 65<126.283 209.646> 518 73<105.027 171.988 420.492 492.054>
VStem: 22 72<380.693 513.185> 31 72<-206.074 -164.82> 212 50<291.404 347.554> 366 50<-250.104 -198.708> 497 72<-74.7917 518.724> 531 50<-255.489 -205.355>
LayerCount: 2
Back
SplineSet
475 -260 m 3xb9a0
 493 -260 505 -251 505 -236 c 3
 505 -216 489 -195 469 -195 c 3
 452 -195 436 -200 436 -220 c 3
 436 -242 452 -260 475 -260 c 3xb9a0
200 320 m 3
 200 338 185 351 168 351 c 3
 150 351 136 337 136 318 c 3
 136 302 149 288 168 288 c 3
 188 288 200 301 200 320 c 3
581 -232 m 3
 581 -290 541 -328 482 -328 c 3xb9a0
 401 -328 366 -292 366 -231 c 2
 366 -192 l 1
 296 -224 183 -270 110 -270 c 3
 64 -270 31 -236 31 -196 c 3
 31 -156 50 -134 86 -111 c 0
 169 -58 305 -39 483 44 c 1
 475 -28 426 -48 354 -73 c 0
 282 -98 194 -129 132 -161 c 0
 119 -168 112 -176 112 -185 c 3x7ba0
 112 -198 122 -207 136 -207 c 3
 151 -207 174 -200 204 -188 c 0
 296 -146 411 -108 494 -66 c 1
 494 432 l 2
 494 516 486 522 460 522 c 3
 432 522 360 419 308 419 c 3
 226 419 177 518 126 518 c 3
 98 518 91 456 91 429 c 3
 91 424 94 399 96 379 c 1
 110 403 137 416 173 416 c 3
 230 416 262 376 262 320 c 3
 262 262 223 223 165 223 c 3
 65 223 22 327 22 429 c 3
 22 549 76 591 123 591 c 3
 173 591 244 522 301 491 c 1
 341 523 422 591 466 591 c 3
 541 591 569 547 569 448 c 2
 569 -91 l 2x7dc0
 569 -100 499 -117 479 -123 c 1
 537 -123 581 -174 581 -232 c 3
EndSplineSet
Fore
SplineSet
478 -260 m 3xbcd0
 508 -260 531 -251 531 -236 c 3
 531 -216 504 -195 472 -195 c 3
 443 -195 416 -200 416 -220 c 3
 416 -242 443 -260 478 -260 c 3xbcd0
212 320 m 3
 212 338 197 351 168 351 c 3
 138 351 124 337 124 318 c 3
 124 302 137 288 168 288 c 3
 200 288 212 301 212 320 c 3
581 -232 m 3
 581 -290 541 -328 482 -328 c 3xbcd0
 401 -328 366 -292 366 -231 c 2
 366 -192 l 1
 296 -224 183 -270 110 -270 c 3
 64 -270 31 -236 31 -196 c 3
 31 -156 50 -134 86 -111 c 0
 169 -58 305 -39 483 44 c 1
 475 -28 426 -48 354 -73 c 0
 282 -98 185 -133 123 -165 c 0
 110 -172 103 -180 103 -185 c 3x7dd0
 103 -198 113 -207 127 -207 c 3
 151 -207 174 -200 204 -188 c 0
 296 -146 414 -107 497 -65 c 1
 497 432 l 2
 497 516 486 522 460 522 c 3
 429 522 360 419 308 419 c 3
 226 419 177 518 126 518 c 3
 101 518 94 456 94 429 c 3
 94 424 97 399 99 379 c 1
 113 403 140 416 173 416 c 3
 230 416 262 376 262 320 c 3
 262 262 223 223 165 223 c 3
 65 223 22 327 22 429 c 3
 22 549 76 591 123 591 c 3
 173 591 244 522 301 491 c 1
 341 523 422 591 466 591 c 3
 541 591 569 547 569 448 c 2
 569 -91 l 2x7ee0
 569 -100 499 -117 479 -123 c 1
 537 -123 581 -174 581 -232 c 3
EndSplineSet
EndChar

StartChar: uni0ED9
Encoding: 3801 3801 62
Width: 781
VWidth: 1063
Flags: W
HStem: -8 57<88.0132 162.458 421.243 557.066> 116 57<95.2578 165.887> 530 61<139.982 284.776>
VStem: 23 72<163 489.006> 23 60<56.0449 111.024> 168 50<57.3494 112.45> 320 72<78.6978 498.418> 585 72<77.6406 528.258>
LayerCount: 2
Back
SplineSet
541 577 m 3
 541 598 554 604 574 607 c 1
 630 573 657 523 657 465 c 2
 657 145 l 2
 657 42 594 -8 497 -8 c 3
 410 -8 318 16 318 123 c 2
 318 460 l 2
 318 494 265 530 215 530 c 3
 144 530 98 476 98 445 c 2
 98 163 l 1
 119 170 138 173 154 173 c 3
 226 173 274 150 274 79 c 3
 274 20 214 -8 154 -8 c 3
 71 -8 23 50 23 140 c 2
 23 423 l 2
 23 537 98 591 215 591 c 3
 314 591 394 546 394 456 c 2
 394 137 l 2
 394 73 441 49 500 49 c 3
 553 49 580 94 580 137 c 2
 580 473 l 2
 580 499 541 550 541 577 c 3
201 86 m 3
 201 103 184 116 164 116 c 3
 141 116 116 105 116 84 c 3
 116 66 137 51 159 51 c 3
 180 51 201 68 201 86 c 3
EndSplineSet
Fore
SplineSet
546 577 m 3xf7
 546 598 559 604 574 607 c 1
 630 573 657 523 657 465 c 2
 657 145 l 2
 657 42 594 -8 497 -8 c 3
 410 -8 320 16 320 123 c 2
 320 460 l 2
 320 494 267 530 215 530 c 3
 141 530 95 476 95 445 c 2
 95 163 l 1xf7
 104 170 112 173 121 173 c 3
 170 173 218 150 218 79 c 3
 218 20 158 -8 121 -8 c 3
 71 -8 23 50 23 110 c 2xef
 23 423 l 2
 23 537 98 591 215 591 c 3
 314 591 392 546 392 456 c 2
 392 137 l 2
 392 73 439 49 500 49 c 3
 558 49 585 94 585 137 c 2
 585 473 l 2
 585 499 546 550 546 577 c 3xf7
168 86 m 3
 168 103 151 116 131 116 c 3
 108 116 83 105 83 84 c 3xef
 83 66 104 51 126 51 c 3
 147 51 168 68 168 86 c 3
EndSplineSet
EndChar

StartChar: uni0EDC
Encoding: 3804 3804 63
Width: 1052
VWidth: 1063
Flags: W
HStem: -8 68<124.751 288.672 709.504 843.574> 0 21G<533 626.5> 396 60<60.3811 129.332> 447 52<290.371 347.71> 530 61<461.364 566.011> 537 54<59.7576 158.103> 549 42<288.676 352.481> 560 20G<835 926>
VStem: 4 72<104.456 228.45> 5 50<463.081 531.234> 165 60<464.693 529.066> 238 50<501.295 545.498> 347 72<112.603 449.645> 581 72<107.555 514.876> 869 72<85.9805 559.144>
LayerCount: 2
Back
SplineSet
283 525 m 3x12fc
 283 508 300 499 318 499 c 3
 331 499 341 501 353 502 c 1
 353 527 342 549 322 549 c 3
 300 549 283 536 283 525 c 3x12fc
70 496 m 3
 70 472 89 456 111 456 c 3
 134 456 150 476 150 496 c 3
 150 515 134 537 111 537 c 3x24fc
 85 537 70 522 70 496 c 3
573 457 m 2
 573 505 552 530 517 530 c 3x48fc
 488 530 455 511 419 466 c 1
 419 150 l 2
 419 69 316 -8 211 -8 c 3
 89 -8 -2 46 -2 172 c 3
 -2 252 87 343 124 398 c 1
 124 398 109 396 104 396 c 3
 49 396 -1 437 -1 489 c 3
 -1 551 45 591 107 591 c 3xa4fc
 175 591 236 554 236 491 c 3
 236 360 76 239 76 172 c 3
 76 95 136 60 208 60 c 3
 276 60 342 111 342 160 c 2
 343 447 l 1
 286 454 238 459 238 520 c 3
 238 569 276 591 325 591 c 3x92fc
 372 591 397 574 412 535 c 1
 433 576 473 591 531 591 c 3x08fc
 609 591 652 555 652 474 c 2
 653 129 l 1
 697 83 732 63 779 63 c 3
 837 63 871 91 871 140 c 2
 871 482 l 2
 871 524 852 556 837 580 c 1
 918 580 l 1
 934 547 941 513 941 482 c 2
 941 116 l 2
 941 30 858 -8 766 -8 c 3x81fc
 715 -8 676 4 649 36 c 1
 639 23 631 11 622 0 c 1
 525 0 l 1x40fc
 547 26 573 65 573 109 c 2
 573 457 l 2
EndSplineSet
Fore
SplineSet
288 525 m 3x123e
 288 508 305 499 323 499 c 3
 336 499 346 501 358 502 c 1
 358 527 347 549 327 549 c 3
 305 549 288 536 288 525 c 3x123e
55 496 m 3x247e
 55 472 74 456 111 456 c 3
 149 456 165 476 165 496 c 3
 165 515 149 537 111 537 c 3
 70 537 55 522 55 496 c 3x247e
581 457 m 2
 581 505 560 530 517 530 c 3
 488 530 455 511 419 466 c 1
 419 150 l 2
 419 69 316 -8 211 -8 c 3
 95 -8 4 46 4 172 c 3x88be
 4 252 93 343 130 398 c 1
 130 398 115 396 110 396 c 3
 55 396 5 437 5 489 c 3
 5 551 51 591 107 591 c 3xa47e
 164 591 225 554 225 491 c 3
 225 360 76 239 76 172 c 3
 76 95 136 60 208 60 c 3
 281 60 347 111 347 160 c 2
 348 447 l 1
 291 454 238 459 238 520 c 3
 238 569 281 591 330 591 c 3x92be
 372 591 397 574 412 535 c 1
 433 576 473 591 531 591 c 3x08be
 609 591 652 555 652 474 c 2
 653 129 l 1
 697 83 732 63 779 63 c 3
 835 63 869 91 869 140 c 2
 869 482 l 2
 869 524 850 556 835 580 c 1
 918 580 l 1
 934 547 941 513 941 482 c 2
 941 116 l 2
 941 30 858 -8 766 -8 c 3x81be
 715 -8 676 4 649 36 c 1
 639 23 631 11 622 0 c 1
 533 0 l 1x40be
 555 26 581 65 581 109 c 2
 581 457 l 2
EndSplineSet
EndChar

StartChar: uni0EDD
Encoding: 3805 3805 64
Width: 1073
VWidth: 1063
Flags: W
HStem: -8 68<129.536 294.49 506.389 591.736 709.948 849.008> 140 70<506.489 584.614> 396 60<65.7123 133.832> 447 52<295.371 352.71> 530 61<466.364 570.094> 537 54<65.2492 163.497> 549 42<293.466 357.481> 560 20G<840 931>
VStem: 9 72<104.456 225.748> 10 50<463.168 531.11> 170 60<462.672 528.866> 243 50<501.225 546.621> 352 72<110.024 449.645> 452 50<64.9384 133.36> 585 72<205 514.876> 597 60<103.058 133.427> 874 72<85.9805 559.8>
LayerCount: 2
Back
SplineSet
289 525 m 3xd2f9
 289 507 304 499 323 499 c 3
 336 499 346 501 358 502 c 1
 358 527 347 549 327 549 c 3
 306 549 289 542 289 525 c 3xd2f9
116 456 m 3xe4f9
 139 456 155 476 155 496 c 3
 155 515 139 537 116 537 c 3
 91 537 75 521 75 496 c 3
 75 473 94 456 116 456 c 3xe4f9
243 520 m 3
 243 568 281 591 330 591 c 3xd2fd
 377 591 402 574 417 535 c 1
 438 576 478 591 536 591 c 3
 614 591 657 555 657 474 c 2xc8fd
 657 144 l 2
 657 94 738 63 784 63 c 3
 848 63 876 94 876 140 c 2
 876 482 l 2
 876 534 857 555 842 580 c 1
 923 580 l 1xc1fb
 939 547 946 513 946 482 c 2
 946 116 l 2
 946 30 863 -8 771 -8 c 3
 718 -8 676 6 637 31 c 1
 611 5 583 -8 555 -8 c 3
 494 -8 446 42 446 103 c 3
 446 162 494 210 556 210 c 3
 562 210 569 208 578 205 c 1
 578 457 l 2
 578 499 557 530 522 530 c 3
 493 530 460 511 424 466 c 1
 424 150 l 2
 424 79 333 -8 216 -8 c 3
 94 -8 4 46 4 172 c 3
 4 255 92 343 129 398 c 1
 129 398 114 396 109 396 c 3xe8fd
 61 396 5 430 5 489 c 3
 5 551 51 591 113 591 c 3
 181 591 241 553 241 491 c 3
 241 371 81 229 81 172 c 3
 81 95 141 60 213 60 c 3
 284 60 347 109 347 160 c 2
 348 447 l 1xd4fd
 291 454 243 459 243 520 c 3
591 100 m 3xc0fb
 591 121 572 140 549 140 c 3
 527 140 508 123 508 101 c 3
 508 76 525 60 549 60 c 3
 571 60 591 77 591 100 c 3xc0fb
EndSplineSet
Fore
SplineSet
293 525 m 3xd23c80
 293 507 309 499 328 499 c 3
 341 499 351 501 363 502 c 1
 363 527 352 549 332 549 c 3
 311 549 293 542 293 525 c 3xd23c80
116 456 m 3xe47c80
 154 456 170 476 170 496 c 3
 170 515 154 537 116 537 c 3
 76 537 60 521 60 496 c 3
 60 473 79 456 116 456 c 3xe47c80
243 520 m 3
 243 568 281 591 335 591 c 3xd2bc80
 377 591 402 574 417 535 c 1
 438 576 478 591 536 591 c 3
 614 591 657 555 657 474 c 2xc8be80
 657 144 l 2
 657 94 738 63 784 63 c 3
 846 63 874 94 874 140 c 2
 874 482 l 2
 874 534 855 555 840 580 c 1
 923 580 l 1xc13d80
 939 547 946 513 946 482 c 2
 946 116 l 2
 946 30 863 -8 771 -8 c 3
 718 -8 676 6 637 31 c 1
 611 5 583 -8 561 -8 c 3
 500 -8 452 42 452 103 c 3
 452 162 500 210 562 210 c 3
 568 210 576 208 585 205 c 1
 585 457 l 2
 585 499 564 530 522 530 c 3
 493 530 460 511 424 466 c 1
 424 150 l 2
 424 79 333 -8 216 -8 c 3
 99 -8 9 46 9 172 c 3xc8be80
 9 255 97 343 134 398 c 1
 134 398 119 396 114 396 c 3
 66 396 10 430 10 489 c 3xe87c80
 10 551 56 591 113 591 c 3
 170 591 230 553 230 491 c 3
 230 371 81 229 81 172 c 3
 81 95 141 60 213 60 c 3
 289 60 352 109 352 160 c 2
 353 447 l 1xd4bc80
 296 454 243 459 243 520 c 3
597 100 m 3xc03d80
 597 121 578 140 549 140 c 3
 521 140 502 123 502 101 c 3
 502 76 519 60 549 60 c 3
 577 60 597 77 597 100 c 3xc03d80
EndSplineSet
EndChar

StartChar: uni0E92
Encoding: 3730 3730 68
Width: 1082
VWidth: 1063
Flags: W
HStem: -8 68<452.334 537.044 641.946 798.413> -8 58<151.626 222.507> 136 42<151.371 223.472> 153 63<451.903 537.166> 524 67<108.685 207.012 405.98 504.652> 560 20G<795 887.5>
VStem: 4 72<119.043 485.348> 229 50<56.2602 131.622> 394 50<67.9009 144.012> 546 72<82.9657 143.139 202 473> 833 72<91.5312 551.335>
LayerCount: 2
Fore
SplineSet
145 94 m 3x63e0
 145 71 160 50 186 50 c 3
 213 50 229 75 229 95 c 3
 229 117 215 136 187 136 c 3
 160 136 145 113 145 94 c 3x63e0
546 108 m 3
 546 132 519 153 494 153 c 3
 469 153 444 133 444 108 c 3
 444 79 466 60 494 60 c 3x93e0
 520 60 546 81 546 108 c 3
496 216 m 3
 510 216 530 209 546 202 c 1
 546 371 l 2
 546 439 517 524 463 524 c 3
 414 524 373 476 349 434 c 0
 342 420 329 405 311 405 c 3
 297 405 280 421 275 432 c 0
 249 470 199 524 153 524 c 3
 112 524 76 474 76 409 c 2
 76 192 l 2
 76 165 77 129 95 115 c 1
 105 155 141 178 184 178 c 3
 235 178 279 144 279 87 c 3
 279 29 232 -8 176 -8 c 3
 76 -8 4 67 4 169 c 2
 3 396 l 2
 3 505 55 591 156 591 c 3
 223 591 280 554 310 509 c 1
 342 549 393 591 464 591 c 3x6be0
 563 591 618 502 618 393 c 2
 618 102 l 1
 641 79 664 60 717 60 c 3
 781 60 833 88 833 145 c 2
 833 479 l 2
 833 508 814 552 795 580 c 1
 879 580 l 1x87e0
 896 546 905 512 905 479 c 2
 905 120 l 2
 905 40 801 -8 717 -8 c 3
 666 -8 623 5 586 32 c 1
 557 5 526 -8 495 -8 c 3
 448 -8 394 40 394 106 c 3
 394 167 450 216 496 216 c 3
EndSplineSet
EndChar

StartChar: uni0EAC
Encoding: 3756 3756 69
Width: 645
VWidth: 1063
Flags: W
HStem: -8 44<127.733 206.799> 0 21G<362 495.5> 120 44<125.569 208.658> 333 63<195.344 395.773> 450 65<300.739 434.085> 532 59<73.1132 190.386>
VStem: 1 72<107.897 241.368 462.007 528.368> 213 50<42.1688 114.211> 362 109<0 109> 485 72<99.4446 262.018>
LayerCount: 2
Fore
SplineSet
121 80 m 3xbfc0
 121 56 138 36 166 36 c 3
 193 36 213 52 213 80 c 3
 213 103 197 120 167 120 c 3
 141 120 121 106 121 80 c 3xbfc0
114 532 m 3
 93 532 70 525 70 496 c 3
 70 447 225 409 268 396 c 1
 423 396 557 346 557 194 c 3
 557 103 520 40 471 0 c 1
 362 0 l 1x7fc0
 417 45 485 81 485 186 c 3
 485 308 370 333 252 333 c 3
 184 333 73 274 73 166 c 3
 73 146 79 120 86 106 c 1
 100 141 124 164 167 164 c 3
 215 164 263 133 263 80 c 3
 263 28 215 -8 160 -8 c 3
 60 -8 1 58 1 173 c 3
 1 292 60 338 133 370 c 1
 82 389 -2 419 -2 482 c 3
 -2 555 56 591 114 591 c 3
 216 591 320 515 372 515 c 3
 436 515 468 568 493 614 c 1
 563 595 l 1
 512 515 466 450 372 450 c 3
 270 450 190 532 114 532 c 3
EndSplineSet
EndChar

StartChar: uni0E8C
Encoding: 3724 3724 70
Width: 665
VWidth: 1063
Flags: W
HStem: -8 64<129.718 304.605> 322 49<76.2136 147.913> 439 45<100.395 146.458> 521 70<116.734 265.464 342.279 469.028>
VStem: 23 50<375.635 435.098> 51 72<69.1394 103.614> 150 50<374.542 434.558> 487 72<-178.85 49.875> 512 72<306.282 475.398>
LayerCount: 2
Fore
SplineSet
150 402 m 3xfa
 150 425 132 439 108 439 c 3
 90 439 73 423 73 405 c 3
 73 386 91 371 112 371 c 3
 133 371 150 383 150 402 c 3xfa
461 120 m 3
 519 120 559 84 559 34 c 2
 559 -78 l 2
 559 -126 569 -171 591 -193 c 1
 510 -214 l 1
 493 -157 487 -119 487 -55 c 2
 487 20 l 2
 487 40 473 54 442 54 c 3
 404 54 309 -8 197 -8 c 3
 95 -8 51 44 51 101 c 3xf7
 51 152 165 175 210 178 c 0
 244 180 285 187 331 198 c 0
 423 220 512 286 512 388 c 3
 512 468 475 521 403 521 c 3
 359 521 330 500 304 445 c 1
 276 495 256 524 193 524 c 3
 146 524 120 508 100 483 c 1
 106 484 111 484 116 484 c 3
 152 484 200 451 200 407 c 3
 200 354 160 322 115 322 c 3
 53 322 23 366 23 430 c 3xfa80
 23 515 109 591 188 591 c 3
 239 591 284 573 303 542 c 1
 315 565 355 591 411 591 c 3
 524 591 584 496 584 379 c 3
 584 244 472 185 368 147 c 0
 332 134 287 125 235 120 c 0
 184 116 123 104 123 87 c 3xf680
 123 70 179 56 196 56 c 3
 285 56 389 120 461 120 c 3
EndSplineSet
EndChar

StartChar: uni0EA8
Encoding: 3752 3752 71
Width: 700
VWidth: 1063
Flags: W
HStem: -8 63<145.27 254.11> 0 21G<466 556.5> 127 48<182.329 254.589> 223 52<135.9 238.616> 351 47<144.324 238.291> 525 66<162.744 409.114>
VStem: 3 72<90.8776 259.767 353.678 452.743> 129 50<62.3811 121.735> 243 50<281.319 345.207> 258 50<59.4954 122.768> 501 72<28.0688 445.095>
LayerCount: 2
Back
SplineSet
43 304 m 1xbfa0
 23 331 7 359 7 408 c 3
 7 536 162 591 297 591 c 3
 424 591 573 528 573 435 c 2
 573 71 l 2
 573 56 563 33 550 0 c 1
 466 0 l 1
 479 28 501 66 501 96 c 2
 501 411 l 2
 501 479 379 525 301 525 c 3
 193 525 79 497 79 390 c 3
 79 370 82 359 85 353 c 1
 111 383 141 398 195 398 c 3
 250 398 293 363 293 311 c 3x7fc8
 293 260 249 223 196 223 c 3
 147 223 116 238 89 261 c 1
 80 242 75 217 75 185 c 3
 75 124 92 76 132 62 c 1
 129 85 l 1
 129 134 179 175 221 175 c 3
 263 175 308 136 308 85 c 3
 308 35 259 -8 214 -8 c 3
 66 -8 3 60 3 190 c 3
 3 243 18 271 43 304 c 1xbfa0
191 275 m 3
 216 275 243 285 243 311 c 3
 243 336 224 351 196 351 c 3
 169 351 145 336 124 307 c 1
 145 286 167 275 191 275 c 3
219 55 m 3xbfa0
 240 55 258 71 258 93 c 3
 258 112 238 127 219 127 c 3
 199 127 179 113 179 93 c 3
 179 68 194 55 219 55 c 3xbfa0
474 614 m 1x3f90
 549 623 l 1
 533 497 509 425 405 399 c 1
 373 463 l 1
 448 468 471 535 474 614 c 1x3f90
EndSplineSet
Fore
SplineSet
474 614 m 1xbf60
 549 623 l 1
 544 582 538 548 529 518 c 1
 556 495 573 466 573 435 c 2
 573 71 l 2
 573 56 563 33 550 0 c 1
 466 0 l 1
 479 28 501 66 501 96 c 2
 501 411 l 2
 501 423 497 435 490 446 c 1
 470 424 443 408 405 399 c 1
 373 463 l 1
 400 465 421 475 436 491 c 1
 395 513 342 525 301 525 c 3
 193 525 79 497 79 390 c 3
 79 370 82 359 85 353 c 1
 111 383 141 398 195 398 c 3
 250 398 293 363 293 311 c 3x7fa0
 293 260 249 223 196 223 c 3
 147 223 116 238 89 261 c 1
 80 242 75 217 75 185 c 3
 75 124 92 76 132 62 c 1
 129 85 l 1
 129 134 179 175 221 175 c 3
 263 175 308 136 308 85 c 3
 308 35 259 -8 214 -8 c 3
 66 -8 3 60 3 190 c 3
 3 243 18 271 43 304 c 1
 23 331 7 359 7 408 c 3
 7 536 162 591 297 591 c 3
 354 591 416 578 467 555 c 1
 471 573 473 593 474 614 c 1xbf60
219 55 m 3xbf60
 240 55 258 71 258 93 c 3
 258 112 238 127 219 127 c 3
 199 127 179 113 179 93 c 3
 179 68 194 55 219 55 c 3xbf60
191 275 m 3
 216 275 243 285 243 311 c 3x3fa0
 243 336 224 351 196 351 c 3
 169 351 145 336 124 307 c 1
 145 286 167 275 191 275 c 3
EndSplineSet
EndChar

StartChar: uni0EA9
Encoding: 3753 3753 72
Width: 708
VWidth: 1063
Flags: W
HStem: -8 70<168.484 410.706> 254 57<443.105 512> 392 58<76.0625 125.676> 533 58<72.8555 158.137> 560 20G<472 564.5>
VStem: 16 72<126.869 239.487> 17 50<458.488 525.937> 163 60<457.135 527.134> 512 72<138.781 257.118 315 545.504>
LayerCount: 2
Back
SplineSet
88 189 m 3xf580
 88 94 195 62 293 62 c 3
 397 62 512 108 512 205 c 2
 512 473 l 2
 512 517 487 549 472 580 c 1
 561 580 l 1
 568 553 584 532 584 501 c 2
 584 205 l 2
 584 65 445 -8 293 -8 c 3
 156 -8 16 44 16 189 c 0xed80
 16 269 80 313 126 386 c 1
 125 392 117 392 112 392 c 3
 62 392 17 430 17 486 c 3xeb80
 17 547 59 591 112 591 c 3
 169 591 223 553 223 489 c 3
 223 450 214 409 202 388 c 0
 173 338 88 220 88 189 c 3xf580
163 492 m 3
 163 517 143 533 115 533 c 3
 87 533 67 513 67 492 c 3xf380
 67 475 87 450 115 450 c 3
 145 450 163 470 163 492 c 3
440 335 m 1
 461 319 497 309 544 309 c 3
 589 309 636 332 682 376 c 1
 699 363 708 350 708 336 c 3
 708 288 616 252 548 252 c 3
 483 252 429 273 384 296 c 1
 440 336 l 1
 440 335 l 1
EndSplineSet
Fore
SplineSet
163 492 m 3xf380
 163 517 143 533 115 533 c 3
 87 533 67 513 67 492 c 3
 67 475 87 450 115 450 c 3
 145 450 163 470 163 492 c 3xf380
88 189 m 3xf580
 88 94 195 62 293 62 c 3
 397 62 512 108 512 205 c 2
 512 254 l 1
 463 260 420 277 384 296 c 1
 440 336 l 1
 440 335 l 1
 456 323 481 314 512 311 c 1
 512 473 l 2
 512 517 487 549 472 580 c 1
 561 580 l 1
 568 553 584 532 584 501 c 2
 584 315 l 1
 616 324 649 345 682 376 c 1
 699 363 708 350 708 336 c 3
 708 296 644 265 584 255 c 1
 584 205 l 2
 584 65 445 -8 293 -8 c 3
 156 -8 16 44 16 189 c 3xed80
 16 269 80 313 126 386 c 1
 125 392 117 392 112 392 c 3
 62 392 17 430 17 486 c 3xeb80
 17 547 59 591 112 591 c 3
 169 591 223 553 223 489 c 3
 223 450 214 409 202 388 c 0
 173 338 88 220 88 189 c 3xf580
EndSplineSet
EndChar

StartChar: uni0EAF
Encoding: 3759 3759 73
Width: 481
VWidth: 1063
Flags: W
HStem: 0 21G<341 413> 334 63<148.218 243.397> 524 67<72.1917 151.292> 560 20G<328.5 413>
VStem: 19 50<456.771 518.971> 154 50<455.447 519.279> 341 72<0 425 513.594 580>
LayerCount: 2
Back
SplineSet
111 591 m 259xee
 167 591 204 548 204 490 c 3
 204 448 185 418 147 400 c 1
 153 398 158 397 162 397 c 3
 250 397 308 459 335 580 c 1
 413 580 l 1xde
 413 0 l 1
 334 0 l 1
 334 425 l 1
 301 365 251 334 182 334 c 3
 92 334 19 394 19 482 c 3
 19 539 54 591 111 591 c 259xee
113 524 m 3xee
 91 524 79 512 79 488 c 259
 79 464 91 451 113 451 c 3
 135 451 146 464 146 488 c 259
 146 512 135 524 113 524 c 3xee
EndSplineSet
Fore
SplineSet
111 591 m 259xee
 167 591 204 548 204 490 c 3
 204 448 185 418 147 400 c 1
 153 398 158 397 162 397 c 3
 250 397 315 459 342 580 c 1
 413 580 l 1xde
 413 0 l 1
 341 0 l 1
 341 425 l 1
 308 365 251 334 182 334 c 3
 92 334 19 394 19 482 c 3
 19 539 54 591 111 591 c 259xee
112 524 m 3xee
 90 524 69 512 69 488 c 259
 69 464 90 451 112 451 c 3
 134 451 154 464 154 488 c 259
 154 512 134 524 112 524 c 3xee
EndSplineSet
EndChar

StartChar: uni0EA0
Encoding: 3744 3744 74
Width: 783
VWidth: 1059
Flags: W
HStem: -8 48<97.7646 162.862> 0 21G<545 637> 121 45<96.9245 157.732> 523 68<324.303 543.847> 543 48<64.1525 146.334>
VStem: 9 50<456.933 536.2> 42 50<45.792 115.578> 158 71<165 457.194> 169 60<45.0781 116.154> 584 72<32.7868 485.798>
LayerCount: 2
Fore
SplineSet
169 81 m 3xa2c0
 169 103 148 121 131 121 c 3
 113 121 92 103 92 81 c 3
 92 58 113 40 131 40 c 3
 149 40 169 59 169 81 c 3xa2c0
52 425 m 1
 28 441 9 462 9 501 c 3
 9 561 53 591 114 591 c 3xad40
 154 591 209 571 215 527 c 1
 276 567 333 591 444 591 c 3
 538 591 656 548 656 463 c 2
 656 97 l 2
 656 50 643 27 631 0 c 1
 545 0 l 1
 561 33 584 61 584 97 c 2
 584 439 l 2
 584 500 511 523 444 523 c 3
 389 523 299 512 229 438 c 1x7540
 229 79 l 2
 229 30 187 -8 133 -8 c 3
 84 -8 42 30 42 79 c 3xb2c0
 42 137 79 166 135 166 c 0
 145 166 153 165 158 165 c 1
 157 483 l 2
 157 517 137 543 113 543 c 3
 81 543 59 527 59 506 c 3xad40
 59 489 69 475 83 470 c 1
 52 425 l 1
EndSplineSet
EndChar

StartChar: uni0E8F
Encoding: 3727 3727 75
Width: 695
VWidth: 1063
Flags: W
HStem: -8 67<114.714 244.22 375.443 489.047> 253 50<124.641 235.991> 407 53<179.964 251.745> 543 48<179.074 251.069> 560 20G<472 568>
VStem: 13 72<89.2523 215.677 338.196 475.425> 257 50<465.388 536.999> 277 72<92.1938 180> 513 72<85.7551 548.032>
LayerCount: 2
Fore
SplineSet
124 497 m 1xf680
 100 486 89 429 89 385 c 3
 89 323 153 303 207 303 c 3
 217 303 227 304 238 305 c 1
 236 251 l 1
 236 251 223 253 218 253 c 3
 129 253 85 220 85 146 c 3
 85 99 122 59 172 59 c 3
 231 59 277 89 277 156 c 2
 277 180 l 1
 349 180 l 1
 349 136 l 2
 349 95 391 55 438 55 c 3
 488 55 513 107 513 160 c 2
 513 471 l 2
 513 506 495 549 472 580 c 1
 564 580 l 1xed80
 572 554 585 533 585 498 c 2
 585 143 l 2
 585 71 534 -8 441 -8 c 3
 371 -8 333 21 313 67 c 1
 277 31 241 -8 169 -8 c 3
 73 -8 13 48 13 144 c 3
 13 209 26 237 77 266 c 1
 41 290 17 328 17 395 c 3
 17 500 103 591 202 591 c 3
 261 591 307 556 307 491 c 3
 307 438 268 407 220 407 c 3
 165 407 130 443 124 497 c 1xf680
257 502 m 3xf680
 257 525 238 543 215 543 c 3
 193 543 174 524 174 502 c 3
 174 479 192 460 215 460 c 3
 239 460 257 479 257 502 c 3xf680
EndSplineSet
EndChar

StartChar: uni0E98
Encoding: 3736 3736 76
Width: 697
VWidth: 1059
Flags: W
HStem: -8 59<105.924 219.24 394.313 484.95> 65 51<104.599 146.088> 205 48<65.5154 145.104> 440 68<322.732 452.017> 528 63<72.0015 198.061>
VStem: -2 72<463.992 523.372> -2 60<124.338 197.583> 153 50<123.223 197.359> 268 72<102.476 215> 515 72<82.2389 226.264>
LayerCount: 2
Fore
SplineSet
106 116 m 3xfbc0
 132 116 153 135 153 161 c 3
 153 185 131 205 106 205 c 3
 81 205 58 186 58 161 c 3
 58 135 80 116 106 116 c 3xfbc0
304 73 m 1
 275 32 231 -8 167 -8 c 3
 78 -8 -2 50 -2 133 c 3xfbc0
 -2 210 48 253 110 253 c 3
 167 253 203 215 203 159 c 3
 203 110 163 65 117 65 c 0
 111 65 113 66 104 67 c 1
 126 57 146 51 164 51 c 0
 215 51 255 102 268 146 c 1
 268 215 l 1
 340 215 l 1
 340 146 l 1
 349 98 401 57 440 57 c 3
 492 57 515 101 515 154 c 3
 515 207 492 239 454 261 c 0
 389 298 157 364 57 406 c 0
 23 422 -2 440 -2 483 c 3
 -2 543 50 591 117 591 c 3
 224 591 345 508 384 508 c 3
 455 508 490 564 517 615 c 1
 591 595 l 1
 536 504 486 440 384 440 c 3
 290 440 200 528 120 528 c 3
 96 528 70 521 70 499 c 3xfdc0
 70 465 96 462 132 447 c 0
 260 394 397 358 512 302 c 0
 561 278 587 230 587 155 c 3
 587 55 536 -8 451 -8 c 3
 388 -8 334 33 304 73 c 1
EndSplineSet
EndChar

StartChar: uni0E93
Encoding: 3731 3731 77
Width: 927
VWidth: 1063
Flags: W
HStem: -8 56<147.574 222.257> 0 21G<392 464 706 804> 129 50<146.463 224.095> 526 65<138.333 337.194 512.377 706.649>
VStem: 3 72<119.396 464.509> 228 50<54.7065 124.805> 392 72<0 479.976> 747 72<30.6975 489.017>
LayerCount: 2
Fore
SplineSet
228 91 m 3xbf
 228 113 212 129 185 129 c 3
 160 129 141 110 141 91 c 3
 141 72 158 48 184 48 c 3
 211 48 228 70 228 91 c 3xbf
819 106 m 2
 819 58 813 35 795 0 c 1
 706 0 l 1
 725 30 747 56 747 107 c 2
 747 425 l 2
 747 507 681 526 598 526 c 3
 547 526 464 502 464 424 c 2
 464 0 l 1
 392 0 l 1x7f
 392 424 l 2
 392 502 299 526 242 526 c 3
 133 526 75 483 75 376 c 2
 75 183 l 2
 75 161 83 133 91 116 c 1
 97 156 147 179 184 179 c 3
 233 179 278 141 278 88 c 3
 278 31 227 -8 176 -8 c 3
 73 -8 3 68 3 169 c 2
 3 362 l 2
 3 514 86 591 229 591 c 3
 315 591 370 582 428 527 c 1
 475 581 534 591 624 591 c 3
 719 591 819 523 819 427 c 2
 819 106 l 2
EndSplineSet
EndChar

StartChar: uni0E8E
Encoding: 3726 3726 78
Width: 899
VWidth: 1063
Flags: W
HStem: -8 66<149.439 259.177 520.72 620.615> 135 47<187.613 260.064> 231 55<140.462 245.549> 364 48<149.505 245.133> 524 67<143.445 339.631> 560 20G<663 735>
VStem: 3 72<99.6254 269.123 365.584 463.981> 133 50<65.2324 129.197> 250 50<293.083 358.824> 264 50<63.6125 129.632> 415 72<90.1622 458.696> 663 72<102.651 580>
LayerCount: 2
Fore
SplineSet
196 286 m 3xf3b0
 222 286 250 296 250 322 c 3
 250 349 232 364 202 364 c 3
 174 364 150 349 128 319 c 1
 150 297 172 286 196 286 c 3xf3b0
223 58 m 3
 246 58 264 76 264 99 c 3xf370
 264 118 243 135 223 135 c 3
 204 135 183 118 183 99 c 3
 183 74 197 58 223 58 c 3
44 316 m 1
 24 342 7 373 7 414 c 3
 7 528 128 591 245 591 c 3xfb70
 370 591 487 522 487 401 c 2
 487 166 l 2
 487 101 516 62 574 62 c 259
 623 62 663 117 663 166 c 2
 663 580 l 1
 735 580 l 1xf770
 735 166 l 2
 735 71 670 -8 575 -8 c 3
 461 -8 415 49 415 178 c 2
 415 401 l 2
 415 470 334 524 247 524 c 3
 171 524 79 492 79 408 c 3
 79 393 83 379 90 365 c 1
 114 397 145 412 202 412 c 3
 257 412 300 376 300 322 c 259xfbb0
 300 269 256 231 203 231 c 3
 151 231 121 248 92 270 c 1
 80 251 75 226 75 193 c 3
 75 133 92 80 137 65 c 1
 137 65 133 82 133 88 c 3
 133 139 183 182 223 182 c 3
 268 182 314 141 314 88 c 3
 314 36 263 -8 215 -8 c 3
 73 -8 3 57 3 197 c 3
 3 252 18 281 44 316 c 1
EndSplineSet
EndChar

StartChar: uni0E91
Encoding: 3729 3729 79
Width: 808
VWidth: 1063
Flags: W
HStem: -8 69<156.452 318.104> 0 21G<594 691.5> 406 41<50.6016 110.445> 491 60<173.298 218.107> 527 64<222.978 272.75 476.365 594.177> 543 48<89.0469 164.367>
VStem: -2 50<449.123 507.161> 35 72<107.383 235.34> 113 50<449.3 507.988> 275 72<410.995 526.722> 370 72<106.401 491.481> 635 72<32.3993 485.109>
LayerCount: 2
Fore
SplineSet
113 479 m 3x22f0
 113 496 98 510 81 510 c 3
 63 510 48 497 48 479 c 3
 48 460 62 447 81 447 c 3
 98 447 113 462 113 479 c 3x22f0
80 406 m 259
 38 406 -2 437 -2 478 c 3
 -2 540 59 591 115 591 c 3x26f0
 168 591 172 551 196 551 c 3x32f0
 218 551 207 591 263 591 c 3
 325 591 347 550 347 479 c 3
 347 407 291 312 220 288 c 0
 155 267 107 236 107 177 c 3
 107 98 167 61 243 61 c 3xa9f0
 308 61 370 103 370 163 c 2
 370 407 l 2
 370 529 410 591 534 591 c 3
 648 591 707 524 707 407 c 2
 707 108 l 2
 707 58 700 36 683 0 c 1
 594 0 l 1x69f0
 612 32 635 56 635 109 c 2
 635 405 l 2
 635 474 607 523 534 523 c 3
 467 523 442 478 442 407 c 2
 442 164 l 2
 442 72 362 -8 247 -8 c 3
 123 -8 35 47 35 177 c 3
 35 277 104 317 166 337 c 0
 232 359 275 424 275 493 c 3
 275 515 267 527 255 527 c 3xa9f0
 228 527 222 491 201 491 c 3x31f0
 183 491 159 543 126 543 c 3x25f0
 123 543 121 543 119 542 c 1
 144 532 163 508 163 482 c 3
 163 438 126 406 80 406 c 259
EndSplineSet
EndChar

StartChar: uni0E86
Encoding: 3718 3718 80
Width: 783
VWidth: 1063
Flags: W
HStem: -8 69<163.113 327.118 479.838 588.887> 406 41<61.8025 121.455> 491 60<183.607 228.528> 527 64<233.405 279.06> 543 48<96 174.328> 560 20G<376 448 627 699>
VStem: 9 50<448.968 507.105> 45 72<104.452 221.896> 124 50<448.838 508.226> 282 72<397.731 526.165> 376 72<113.286 580> 627 72<103.179 580>
LayerCount: 2
Fore
SplineSet
124 479 m 3xc2f0
 124 497 109 510 92 510 c 3
 74 510 59 496 59 479 c 3
 59 461 74 447 92 447 c 3
 110 447 124 461 124 479 c 3xc2f0
535 60 m 259
 584 60 627 114 627 163 c 2
 627 580 l 1
 699 580 l 1xc5f0
 699 163 l 2
 699 66 634 -8 538 -8 c 3
 480 -8 453 20 410 55 c 1
 382 20 324 -8 257 -8 c 3
 134 -8 45 49 45 165 c 3
 45 265 114 306 177 326 c 0
 243 348 282 415 282 482 c 3
 282 504 277 527 265 527 c 3xd1f0
 238 527 233 491 211 491 c 3xe1f0
 193 491 169 543 136 543 c 0
 133 543 131 543 129 542 c 1
 153 532 174 507 174 481 c 3
 174 437 136 406 91 406 c 259
 49 406 9 436 9 478 c 3
 9 540 66 591 126 591 c 3xcaf0
 180 591 182 551 206 551 c 3xe2f0
 228 551 218 591 273 591 c 3xd2f0
 331 591 354 539 354 468 c 3
 354 393 299 294 231 277 c 0
 166 260 117 218 117 165 c 3
 117 94 178 61 251 61 c 3
 339 61 376 117 376 209 c 2
 376 580 l 1
 448 580 l 1xc5f0
 448 208 l 2
 448 122 469 60 535 60 c 259
EndSplineSet
EndChar

StartChar: uni0E89
Encoding: 3721 3721 81
Width: 684
VWidth: 1063
Flags: W
HStem: -8 64<87.3673 175.743 320.147 477.519> 116 66<88.4129 170.236> 178 50<231.81 263> 305 50<232.294 300.923> 520 71<139.713 408.127>
VStem: 14 72<58.1293 112.941 443.512 490.77> 178 50<231.827 300.917> 305 50<233.101 300.68> 519 72<108.461 406.636>
LayerCount: 2
Fore
SplineSet
122 116 m 3xdf80
 105 116 86 103 86 85 c 3
 86 67 103 56 119 56 c 3
 131 56 153 65 184 82 c 1
 161 105 139 116 122 116 c 3xdf80
305 267 m 259
 305 289 288 305 266 305 c 259
 245 305 228 288 228 267 c 259
 228 245 244 228 266 228 c 259xbf80
 288 228 305 245 305 267 c 259
266 355 m 259
 319 355 355 313 355 256 c 3
 355 191 312 117 294 99 c 1
 321 68 361 58 416 58 c 3
 488 58 519 92 519 293 c 3
 519 444 442 520 296 520 c 3
 215 520 87 509 87 465 c 3
 87 452 96 449 111 441 c 1
 107 422 94 397 86 380 c 1
 64 393 15 417 15 462 c 3
 15 556 184 591 296 591 c 3
 487 591 591 483 591 293 c 3
 591 38 545 -8 410 -8 c 3
 340 -8 288 7 249 39 c 1
 198 8 154 -8 119 -8 c 3
 54 -8 14 37 14 89 c 3
 14 142 57 182 111 182 c 3xdf80
 141 182 183 166 233 136 c 1
 246 148 256 163 263 178 c 1
 216 180 178 218 178 266 c 3
 178 315 220 355 266 355 c 259
EndSplineSet
EndChar

StartChar: uni0E90
Encoding: 3728 3728 82
Width: 654
VWidth: 1054
Flags: W
HStem: -8 58<66.1901 142.933> 131 53<67.3634 115.562> 522 69<158.339 386.914>
VStem: 9 72<338.898 461.509> 10 50<57.2017 123.078> 149 60<55.8483 124.785> 482 72<-85.9864 443.634>
LayerCount: 2
Fore
SplineSet
482 382 m 2xf6
 482 477 372 522 276 522 c 3
 183 522 81 488 81 404 c 3xf6
 81 329 209 212 209 90 c 3
 209 23 156 -8 103 -8 c 3
 46 -8 10 36 10 93 c 3xee
 10 144 49 184 102 184 c 3
 109 184 114 184 116 188 c 1
 83 242 9 308 9 404 c 3
 9 534 138 591 276 591 c 3
 420 591 554 522 554 384 c 2
 554 7 l 2
 554 -47 583 -111 611 -157 c 1
 523 -157 l 1
 498 -110 482 -49 482 7 c 2
 482 382 l 2xf6
105 131 m 3
 81 131 60 109 60 91 c 3xee
 60 69 82 50 105 50 c 3
 128 50 149 67 149 91 c 3
 149 114 128 131 105 131 c 3
EndSplineSet
EndChar
